<svg version="1.1" id="Layer_1" xmlns="http://www.w3.org/2000/svg" xmlns:xlink="http://www.w3.org/1999/xlink" x="0px" y="0px"
	 width="80" viewBox="0 0 240 240" enable-background="new 0 0 240 240" xml:space="preserve">
<path fill="#000000" opacity="000000" stroke="none" 
	d="
M136.000000,241.000000 
	C90.666672,241.000000 45.833340,241.000000 1.000006,241.000000 
	C1.000004,161.000000 1.000004,81.000015 1.000002,1.000017 
	C80.999992,1.000011 160.999985,1.000011 240.999969,1.000006 
	C240.999985,80.999985 240.999985,160.999969 241.000000,240.999969 
	C206.166672,241.000000 171.333328,241.000000 136.000000,241.000000 
M161.500000,26.000416 
	C119.765953,26.000416 78.031898,26.000416 36.191734,26.000416 
	C36.106560,27.870466 35.941414,29.027189 36.019695,30.167196 
	C36.663372,39.541485 37.307255,48.916195 38.041344,58.283703 
	C38.658695,66.161552 39.354412,74.033920 40.091206,81.901611 
	C41.363396,95.486404 42.759033,109.059891 43.977886,122.649330 
	C44.787609,131.677185 45.295795,140.731918 46.088829,149.761444 
	C47.326073,163.848831 48.821388,177.915039 49.898563,192.013824 
	C50.134659,195.104004 50.816547,196.695267 53.986145,197.584122 
	C72.993637,202.914291 91.911522,208.565414 110.935776,213.833313 
	C115.283264,215.037170 120.300110,216.587830 124.376808,215.533920 
	C143.482239,210.594620 162.292099,204.519424 181.368835,199.457947 
	C188.560486,197.549850 192.601440,195.678009 192.433990,186.544724 
	C192.197723,173.659531 194.795502,160.735077 195.958847,147.807358 
	C196.830673,138.119278 197.232040,128.389481 198.053619,118.696136 
	C199.623657,100.172562 201.305359,81.658150 203.027069,63.147964 
	C203.497482,58.090511 204.459274,53.076511 204.868011,48.016113 
	C205.447647,40.839939 205.723770,33.639256 206.154938,26.000416 
	C191.083618,26.000416 176.791809,26.000416 161.500000,26.000416 
z"/>
<path fill="#fff" opacity="1.000000" stroke="none" 
	d="
M162.000000,26.000416 
	C176.791809,26.000416 191.083618,26.000416 206.154938,26.000416 
	C205.723770,33.639256 205.447647,40.839939 204.868011,48.016113 
	C204.459274,53.076511 203.497482,58.090511 203.027069,63.147964 
	C201.305359,81.658150 199.623657,100.172562 198.053619,118.696136 
	C197.232040,128.389481 196.830673,138.119278 195.958847,147.807358 
	C194.795502,160.735077 192.197723,173.659531 192.433990,186.544724 
	C192.601440,195.678009 188.560486,197.549850 181.368835,199.457947 
	C162.292099,204.519424 143.482239,210.594620 124.376808,215.533920 
	C120.300110,216.587830 115.283264,215.037170 110.935776,213.833313 
	C91.911522,208.565414 72.993637,202.914291 53.986145,197.584122 
	C50.816547,196.695267 50.134659,195.104004 49.898563,192.013824 
	C48.821388,177.915039 47.326073,163.848831 46.088829,149.761444 
	C45.295795,140.731918 44.787609,131.677185 43.977886,122.649330 
	C42.759033,109.059891 41.363396,95.486404 40.091206,81.901611 
	C39.354412,74.033920 38.658695,66.161552 38.041344,58.283703 
	C37.307255,48.916195 36.663372,39.541485 36.019695,30.167196 
	C35.941414,29.027189 36.106560,27.870466 36.191734,26.000416 
	C78.031898,26.000416 119.765953,26.000416 162.000000,26.000416 
M120.077171,105.970047 
	C112.826286,105.970047 105.575394,105.970047 97.910713,105.970047 
	C98.348244,113.004829 98.744194,119.371178 99.167618,126.179108 
	C106.760338,126.179108 113.879547,126.179108 121.001999,127.093971 
	C120.993500,136.388275 120.984993,145.682571 120.217323,155.073181 
	C116.587250,153.876373 112.943909,152.718140 109.329735,151.475098 
	C100.521477,148.445648 100.536774,148.429337 100.052132,138.947556 
	C100.004463,138.014847 99.740883,137.093185 99.590996,136.242889 
	C93.000793,136.242889 86.730171,136.242889 80.057205,136.242889 
	C80.440826,144.109375 80.975998,151.713043 81.105606,159.323608 
	C81.161026,162.577148 82.516441,163.933868 85.449944,164.866608 
	C97.338287,168.646698 109.159721,172.637222 120.995796,177.418365 
	C120.997894,182.916489 120.976715,188.414734 121.008247,193.912689 
	C121.043869,200.124054 121.453224,200.424149 127.202179,198.780228 
	C142.094742,194.521652 156.964783,190.180756 171.901443,186.082718 
	C175.226532,185.170441 177.028564,183.781464 177.327850,180.131027 
	C178.781525,162.400436 180.427765,144.685654 181.998932,126.964668 
	C183.188400,113.548676 184.381302,100.132973 185.547501,86.714958 
	C186.713699,73.296700 187.808090,59.872044 189.021179,46.458080 
	C189.397461,42.297348 187.670029,40.911583 183.569305,40.942245 
	C164.576828,41.084274 145.581635,41.112251 126.589943,40.924770 
	C122.097450,40.880421 120.770813,42.596931 120.937805,46.826893 
	C121.187363,53.148170 121.000351,59.486683 120.077133,65.970047 
	C105.150894,65.970047 90.224648,65.970047 74.966736,65.970047 
	C75.532501,73.004578 76.045815,79.386917 76.592339,86.182198 
	C91.737511,86.182198 106.369858,86.182198 121.007362,87.096016 
	C121.004593,93.336632 121.001823,99.577248 120.077171,105.970047 
z"/>
<path fill="#fff" opacity="1.000000" stroke="none" 
	d="
M120.999054,65.817863 
	C121.000351,59.486683 121.187363,53.148170 120.937805,46.826893 
	C120.770813,42.596931 122.097450,40.880421 126.589943,40.924770 
	C145.581635,41.112251 164.576828,41.084274 183.569305,40.942245 
	C187.670029,40.911583 189.397461,42.297348 189.021179,46.458080 
	C187.808090,59.872044 186.713699,73.296700 185.547501,86.714958 
	C184.381302,100.132973 183.188400,113.548676 181.998932,126.964668 
	C180.427765,144.685654 178.781525,162.400436 177.327850,180.131027 
	C177.028564,183.781464 175.226532,185.170441 171.901443,186.082718 
	C156.964783,190.180756 142.094742,194.521652 127.202179,198.780228 
	C121.453224,200.424149 121.043869,200.124054 121.008247,193.912689 
	C120.976715,188.414734 120.997894,182.916489 121.010071,176.845108 
	C121.024338,176.271851 121.044655,175.993713 121.427902,176.045746 
	C133.655258,172.256866 145.474258,168.335251 157.361938,164.634293 
	C160.177216,163.757828 160.712616,162.049881 160.861145,159.492798 
	C162.154129,137.232376 163.550339,114.977966 164.887741,92.720078 
	C165.413055,83.977402 165.866928,75.230438 166.370636,66.174454 
	C150.884933,66.174454 135.946320,66.174454 121.012413,66.085136 
	C121.017136,65.995819 120.999054,65.817863 120.999054,65.817863 
z"/>
<path fill="#000" opacity="000000" stroke="none" 
	d="
M121.015091,176.410980 
	C109.159721,172.637222 97.338287,168.646698 85.449944,164.866608 
	C82.516441,163.933868 81.161026,162.577148 81.105606,159.323608 
	C80.975998,151.713043 80.440826,144.109375 80.057205,136.242889 
	C86.730171,136.242889 93.000793,136.242889 99.590996,136.242889 
	C99.740883,137.093185 100.004463,138.014847 100.052132,138.947556 
	C100.536774,148.429337 100.521477,148.445648 109.329735,151.475098 
	C112.943909,152.718140 116.587250,153.876373 120.607559,155.159607 
	C120.997787,155.246017 120.984398,155.515686 120.988220,155.951660 
	C121.009583,162.922989 121.027115,169.458344 121.044647,175.993713 
	C121.044655,175.993713 121.024338,176.271851 121.015091,176.410980 
z"/>
<path fill="#000" opacity="000000" stroke="none" 
	d="
M121.002213,86.182198 
	C106.369858,86.182198 91.737511,86.182198 76.592339,86.182198 
	C76.045815,79.386917 75.532501,73.004578 74.966736,65.970047 
	C90.224648,65.970047 105.150894,65.970047 120.538094,65.893951 
	C120.999054,65.817863 121.017136,65.995819 121.005333,66.542564 
	C120.998322,73.334724 121.003113,79.580147 121.013458,85.914825 
	C121.019020,86.004097 121.002213,86.182198 121.002213,86.182198 
z"/>
<path fill="#fff" opacity="1.000000" stroke="none" 
	d="
M120.987137,155.111450 
	C120.984993,145.682571 120.993500,136.388275 121.007820,126.547554 
	C121.013641,126.001137 121.008270,125.822639 121.469009,125.896393 
	C128.853653,125.970146 135.777542,125.970146 142.958389,125.970146 
	C142.527054,133.064346 142.305649,139.524857 141.604095,145.932770 
	C141.458862,147.259293 139.756058,148.977661 138.381927,149.509155 
	C132.663742,151.720734 126.796776,153.547653 120.984398,155.515686 
	C120.984398,155.515686 120.997787,155.246017 120.987137,155.111450 
z"/>
<path fill="#fff" opacity="1.000000" stroke="none" 
	d="
M120.999054,105.817863 
	C121.001823,99.577248 121.004593,93.336632 121.004791,86.639107 
	C121.002213,86.182198 121.019020,86.004097 121.473648,85.989296 
	C129.655258,85.974495 137.382217,85.974495 145.466431,85.974495 
	C144.911133,93.076584 144.414108,99.433464 143.887054,106.174454 
	C135.881943,106.174454 128.444824,106.174454 121.012413,106.085136 
	C121.017136,105.995819 120.999054,105.817863 120.999054,105.817863 
z"/>
<path fill="#000" opacity="000000" stroke="none" 
	d="
M121.006203,126.090118 
	C113.879547,126.179108 106.760338,126.179108 99.167618,126.179108 
	C98.744194,119.371178 98.348244,113.004829 97.910713,105.970047 
	C105.575394,105.970047 112.826286,105.970047 120.538116,105.893951 
	C120.999054,105.817863 121.017136,105.995819 121.005333,106.542557 
	C120.998444,113.333748 121.003357,119.578194 121.008270,125.822639 
	C121.008270,125.822639 121.013641,126.001137 121.006203,126.090118 
z"/>
<path fill="#000" opacity="000000" stroke="none" 
	d="
M121.469009,125.896393 
	C121.003357,119.578194 120.998444,113.333748 121.000610,106.631882 
	C128.444824,106.174454 135.881943,106.174454 143.887054,106.174454 
	C144.414108,99.433464 144.911133,93.076584 145.466431,85.974495 
	C137.382217,85.974495 129.655258,85.974495 121.468094,85.900024 
	C121.003113,79.580147 120.998322,73.334724 121.000610,66.631882 
	C135.946320,66.174454 150.884933,66.174454 166.370636,66.174454 
	C165.866928,75.230438 165.413055,83.977402 164.887741,92.720078 
	C163.550339,114.977966 162.154129,137.232376 160.861145,159.492798 
	C160.712616,162.049881 160.177216,163.757828 157.361938,164.634293 
	C145.474258,168.335251 133.655258,172.256866 121.427902,176.045746 
	C121.027115,169.458344 121.009583,162.922989 120.988220,155.951660 
	C126.796776,153.547653 132.663742,151.720734 138.381927,149.509155 
	C139.756058,148.977661 141.458862,147.259293 141.604095,145.932770 
	C142.305649,139.524857 142.527054,133.064346 142.958389,125.970146 
	C135.777542,125.970146 128.853653,125.970146 121.469009,125.896393 
z"/>
</svg>