<svg version="1.1" id="Layer_1" xmlns="http://www.w3.org/2000/svg" xmlns:xlink="http://www.w3.org/1999/xlink" x="0px" y="0px"
	 width="84" viewBox="0 0 240 240" enable-background="new 0 0 240 240" xml:space="preserve">
<path fill="#000000" opacity="000000" stroke="none" 
	d="
M167.000000,241.000000 
	C111.333336,241.000000 56.166672,241.000000 1.000007,241.000000 
	C1.000005,161.000015 1.000005,81.000015 1.000003,1.000018 
	C80.999985,1.000012 160.999969,1.000012 240.999969,1.000006 
	C240.999969,80.999985 240.999969,160.999969 240.999985,240.999969 
	C216.500000,241.000000 192.000000,241.000000 167.000000,241.000000 
M89.998718,191.501312 
	C96.835106,198.331985 103.624886,205.210159 110.522514,211.978439 
	C116.119133,217.470078 125.601868,217.814041 131.034256,212.410522 
	C158.202911,185.386261 185.293365,158.283020 212.323380,131.120041 
	C217.585220,125.832329 217.644241,116.229156 212.402924,110.960030 
	C185.378220,83.791801 158.275177,56.701157 131.115341,29.667971 
	C125.847542,24.424744 116.315117,24.469267 110.953278,29.587320 
	C105.772903,34.532150 100.855835,39.752026 95.709946,44.734207 
	C93.766495,46.615829 93.452415,48.084133 95.536659,50.103897 
	C101.038727,55.435787 106.320137,60.998230 111.903091,66.241333 
	C112.997726,67.269348 115.196945,67.951485 116.642578,67.644279 
	C128.375366,65.150955 137.283524,73.888405 134.889130,85.551514 
	C134.577011,87.071800 135.115265,89.356079 136.145020,90.462433 
	C141.135239,95.823929 146.303925,101.039429 151.707062,105.981178 
	C152.931320,107.100891 155.438919,107.522461 157.188309,107.237411 
	C163.750046,106.168282 168.815399,108.479736 172.863815,113.406998 
	C176.289261,117.576073 175.896301,122.647522 174.234680,127.001801 
	C172.117508,132.549850 167.238800,135.599014 161.179657,135.963760 
	C152.193619,136.504700 145.528763,127.434898 146.971939,117.114517 
	C147.174118,115.668655 146.873505,113.615646 145.957565,112.639267 
	C140.831482,107.175041 135.481461,101.917641 130.112061,96.688049 
	C129.193222,95.793121 127.811577,95.373360 126.002769,94.383232 
	C126.002769,112.009285 125.938713,128.658875 126.122986,145.305740 
	C126.137909,146.654251 127.580070,148.370377 128.827316,149.256607 
	C134.768234,153.477875 135.751694,159.460281 134.864151,165.964142 
	C134.312531,170.006378 127.417366,175.236084 122.436005,175.977722 
	C117.072556,176.776276 110.028023,172.576401 107.676834,167.178497 
	C105.089546,161.238556 107.547615,153.734375 113.226875,149.219849 
	C114.521225,148.190948 115.861984,146.263779 115.880600,144.734238 
	C116.073204,128.908188 116.035538,113.078636 115.924576,97.251030 
	C115.916328,96.074387 115.160660,94.328987 114.225410,93.823952 
	C106.965660,89.903557 106.398941,83.454308 107.168823,76.363823 
	C107.273033,75.404114 107.385025,74.032318 106.847397,73.478729 
	C100.383514,66.823013 93.797768,60.285648 87.107895,53.581173 
	C85.540131,55.073750 84.326073,56.181725 83.164711,57.342422 
	C65.841171,74.656166 48.754688,92.216698 31.084974,109.169403 
	C24.663818,115.330002 24.699667,126.660233 31.062109,132.806335 
	C50.831696,151.903717 70.060257,171.561157 89.998718,191.501312 
z"/>
<path fill="#Fff" opacity="1.000000" stroke="none" 
	d="
M89.748718,191.251312 
	C70.060257,171.561157 50.831696,151.903717 31.062109,132.806335 
	C24.699667,126.660233 24.663818,115.330002 31.084974,109.169403 
	C48.754688,92.216698 65.841171,74.656166 83.164711,57.342422 
	C84.326073,56.181725 85.540131,55.073750 87.107895,53.581173 
	C93.797768,60.285648 100.383514,66.823013 106.847397,73.478729 
	C107.385025,74.032318 107.273033,75.404114 107.168823,76.363823 
	C106.398941,83.454308 106.965660,89.903557 114.225410,93.823952 
	C115.160660,94.328987 115.916328,96.074387 115.924576,97.251030 
	C116.035538,113.078636 116.073204,128.908188 115.880600,144.734238 
	C115.861984,146.263779 114.521225,148.190948 113.226875,149.219849 
	C107.547615,153.734375 105.089546,161.238556 107.676834,167.178497 
	C110.028023,172.576401 117.072556,176.776276 122.436005,175.977722 
	C127.417366,175.236084 134.312531,170.006378 134.864151,165.964142 
	C135.751694,159.460281 134.768234,153.477875 128.827316,149.256607 
	C127.580070,148.370377 126.137909,146.654251 126.122986,145.305740 
	C125.938713,128.658875 126.002769,112.009285 126.002769,94.383232 
	C127.811577,95.373360 129.193222,95.793121 130.112061,96.688049 
	C135.481461,101.917641 140.831482,107.175041 145.957565,112.639267 
	C146.873505,113.615646 147.174118,115.668655 146.971939,117.114517 
	C145.528763,127.434898 152.193619,136.504700 161.179657,135.963760 
	C167.238800,135.599014 172.117508,132.549850 174.234680,127.001801 
	C175.896301,122.647522 176.289261,117.576073 172.863815,113.406998 
	C168.815399,108.479736 163.750046,106.168282 157.188309,107.237411 
	C155.438919,107.522461 152.931320,107.100891 151.707062,105.981178 
	C146.303925,101.039429 141.135239,95.823929 136.145020,90.462433 
	C135.115265,89.356079 134.577011,87.071800 134.889130,85.551514 
	C137.283524,73.888405 128.375366,65.150955 116.642578,67.644279 
	C115.196945,67.951485 112.997726,67.269348 111.903091,66.241333 
	C106.320137,60.998230 101.038727,55.435787 95.536659,50.103897 
	C93.452415,48.084133 93.766495,46.615829 95.709946,44.734207 
	C100.855835,39.752026 105.772903,34.532150 110.953278,29.587320 
	C116.315117,24.469267 125.847542,24.424744 131.115341,29.667971 
	C158.275177,56.701157 185.378220,83.791801 212.402924,110.960030 
	C217.644241,116.229156 217.585220,125.832329 212.323380,131.120041 
	C185.293365,158.283020 158.202911,185.386261 131.034256,212.410522 
	C125.601868,217.814041 116.119133,217.470078 110.522514,211.978439 
	C103.624886,205.210159 96.835106,198.331985 89.748718,191.251312 
z"/>
</svg>