<svg version="1.1" id="Layer_1" xmlns="http://www.w3.org/2000/svg" xmlns:xlink="http://www.w3.org/1999/xlink" x="0px" y="0px"
	 width="100%" viewBox="0 0 240 240" enable-background="new 0 0 240 240" xml:space="preserve">
<path fill="#000000" opacity="1.000000" stroke="none" 
	d="
M136.000000,241.000000 
	C90.666672,241.000000 45.833340,241.000000 1.000006,241.000000 
	C1.000004,161.000000 1.000004,81.000015 1.000002,1.000017 
	C80.999992,1.000011 160.999985,1.000011 240.999969,1.000006 
	C240.999985,80.999985 240.999985,160.999969 241.000000,240.999969 
	C206.166672,241.000000 171.333328,241.000000 136.000000,241.000000 
M195.990112,149.232529 
	C196.326263,144.966660 196.685822,140.702484 196.993820,136.434586 
	C197.681213,126.909393 198.244080,117.374107 199.037811,107.857964 
	C200.280670,92.956917 201.623016,78.063629 203.028702,63.177006 
	C203.505219,58.130703 204.498291,53.130398 204.903824,48.080849 
	C205.480759,40.896938 205.733292,33.686974 206.134964,26.293877 
	C149.110596,26.293877 92.755051,26.293877 36.000591,26.293877 
	C36.000591,28.214474 35.888390,29.854450 36.019691,31.474693 
	C36.643669,39.174477 37.373344,46.865723 37.990391,54.566021 
	C38.713829,63.593990 39.271271,72.635902 40.059769,81.657875 
	C41.303780,95.891838 42.717312,110.110916 43.987026,124.342728 
	C44.747597,132.867676 45.296436,141.411667 46.073158,149.934982 
	C47.324654,163.668350 48.975773,177.373840 49.822433,191.130249 
	C50.073711,195.212982 51.310497,196.955429 54.983807,197.969467 
	C70.985985,202.386978 86.910416,207.089478 102.938705,211.407776 
	C111.911499,213.825180 120.740288,218.557114 130.456650,214.026031 
	C132.502121,213.072159 134.793442,212.635529 136.984146,212.004517 
	C154.185898,207.049591 171.408798,202.165909 188.560715,197.044342 
	C189.951202,196.629120 191.722244,194.691299 191.856964,193.317856 
	C192.788803,183.817810 193.234604,174.271393 194.043304,164.757431 
	C194.458374,159.874252 195.299301,155.027267 195.990112,149.232529 
z"/>
<path fill="#E65100" opacity="1.000000" stroke="none" 
	d="
M195.968948,149.698227 
	C195.299301,155.027267 194.458374,159.874252 194.043304,164.757431 
	C193.234604,174.271393 192.788803,183.817810 191.856964,193.317856 
	C191.722244,194.691299 189.951202,196.629120 188.560715,197.044342 
	C171.408798,202.165909 154.185898,207.049591 136.984146,212.004517 
	C134.793442,212.635529 132.502121,213.072159 130.456650,214.026031 
	C120.740288,218.557114 111.911499,213.825180 102.938705,211.407776 
	C86.910416,207.089478 70.985985,202.386978 54.983807,197.969467 
	C51.310497,196.955429 50.073711,195.212982 49.822433,191.130249 
	C48.975773,177.373840 47.324654,163.668350 46.073158,149.934982 
	C45.296436,141.411667 44.747597,132.867676 43.987026,124.342728 
	C42.717312,110.110916 41.303780,95.891838 40.059769,81.657875 
	C39.271271,72.635902 38.713829,63.593990 37.990391,54.566021 
	C37.373344,46.865723 36.643669,39.174477 36.019691,31.474693 
	C35.888390,29.854450 36.000591,28.214474 36.000591,26.293877 
	C92.755051,26.293877 149.110596,26.293877 206.134964,26.293877 
	C205.733292,33.686974 205.480759,40.896938 204.903824,48.080849 
	C204.498291,53.130398 203.505219,58.130703 203.028702,63.177006 
	C201.623016,78.063629 200.280670,92.956917 199.037811,107.857964 
	C198.244080,117.374107 197.681213,126.909393 196.993820,136.434586 
	C196.685822,140.702484 196.326263,144.966660 195.968948,149.698227 
M120.225334,155.080658 
	C116.609375,153.888535 113.069084,152.304977 109.361229,151.588211 
	C102.292702,150.221786 98.574448,146.722092 99.784096,139.133209 
	C99.926018,138.242813 99.420273,137.249191 99.224113,136.346436 
	C92.620735,136.346436 86.239471,136.346436 79.620773,136.346436 
	C80.162529,144.655243 80.492058,152.619873 81.363518,160.524750 
	C81.530174,162.036453 83.584198,164.022476 85.189339,164.584259 
	C97.073616,168.743515 109.064636,172.597763 121.005569,177.416290 
	C121.008759,183.576462 121.052696,189.737000 120.999229,195.896683 
	C120.969131,199.362534 122.420250,200.227264 125.705597,199.273041 
	C141.526260,194.678101 157.409180,190.294571 173.186707,185.558563 
	C174.770508,185.083145 176.589859,182.897263 176.921692,181.230774 
	C177.792236,176.859039 177.913086,172.336655 178.310608,167.872345 
	C179.547318,153.983353 180.763245,140.092529 182.007278,126.204216 
	C183.192139,112.976494 184.434326,99.753845 185.592178,86.523788 
	C186.764633,73.127075 187.843231,59.722160 189.010071,46.324944 
	C189.337418,42.566460 188.006470,40.914612 183.969574,40.943550 
	C164.657288,41.082020 145.342896,41.083332 126.030632,40.942772 
	C121.975777,40.913261 120.844353,42.607391 120.953041,46.339718 
	C121.141960,52.827614 121.014984,59.324703 120.094643,65.972267 
	C105.344902,65.972267 90.595161,65.972267 75.503662,65.972267 
	C76.703407,86.391708 77.860237,106.080818 79.041107,126.178917 
	C93.438133,126.178917 107.230202,126.178917 121.018433,127.093651 
	C121.007370,136.388336 120.996300,145.683029 120.225334,155.080658 
z"/>
<path fill="#FF6D01" opacity="1.000000" stroke="none" 
	d="
M121.020462,65.817940 
	C121.014984,59.324703 121.141960,52.827614 120.953041,46.339718 
	C120.844353,42.607391 121.975777,40.913261 126.030632,40.942772 
	C145.342896,41.083332 164.657288,41.082020 183.969574,40.943550 
	C188.006470,40.914612 189.337418,42.566460 189.010071,46.324944 
	C187.843231,59.722160 186.764633,73.127075 185.592178,86.523788 
	C184.434326,99.753845 183.192139,112.976494 182.007278,126.204216 
	C180.763245,140.092529 179.547318,153.983353 178.310608,167.872345 
	C177.913086,172.336655 177.792236,176.859039 176.921692,181.230774 
	C176.589859,182.897263 174.770508,185.083145 173.186707,185.558563 
	C157.409180,190.294571 141.526260,194.678101 125.705597,199.273041 
	C122.420250,200.227264 120.969131,199.362534 120.999229,195.896683 
	C121.052696,189.737000 121.008759,183.576462 121.017014,176.844727 
	C121.028465,176.273148 121.024323,175.998383 121.411911,176.053314 
	C133.338882,172.373642 144.845245,168.531433 156.438873,164.973572 
	C159.685928,163.977127 160.790634,162.339798 160.933655,158.989227 
	C161.508957,145.510269 162.379944,132.043793 163.161880,118.573875 
	C163.398727,114.493919 163.700775,110.417747 163.984146,106.172188 
	C149.244247,106.172188 135.112869,106.172188 121.001846,106.084724 
	C121.022186,105.997261 121.024574,105.817688 121.021133,105.360794 
	C121.020042,98.663376 121.022377,92.422844 121.023537,86.092545 
	C121.022362,86.002769 120.981819,85.827835 121.445023,85.903320 
	C136.338608,85.978813 150.768982,85.978813 165.511536,85.978813 
	C166.009277,79.069496 166.467407,72.710190 166.938400,66.172188 
	C151.240082,66.172188 136.110794,66.172188 121.003983,66.085022 
	C121.026459,65.997864 121.020462,65.817940 121.020462,65.817940 
z"/>
<path fill="#EEEDED" opacity="1.000000" stroke="none" 
	d="
M121.022270,126.178917 
	C107.230202,126.178917 93.438133,126.178917 79.041107,126.178917 
	C77.860237,106.080818 76.703407,86.391708 75.503662,65.972267 
	C90.595161,65.972267 105.344902,65.972267 120.557556,65.895103 
	C121.020462,65.817940 121.026459,65.997864 121.004227,66.542511 
	C120.981934,73.334045 120.981880,79.580940 120.981819,85.827835 
	C120.981819,85.827835 121.022362,86.002769 120.560349,86.015274 
	C112.354065,86.027779 104.609795,86.027779 96.531654,86.027779 
	C97.081833,93.064720 97.579765,99.433350 98.078918,105.817688 
	C106.125679,105.817688 113.575127,105.817688 121.024574,105.817688 
	C121.024574,105.817688 121.022186,105.997261 121.002090,106.542206 
	C120.981895,113.333008 120.981812,119.578865 121.001419,125.912170 
	C121.021118,125.999626 121.022270,126.178917 121.022270,126.178917 
z"/>
<path fill="#EEECEB" opacity="1.000000" stroke="none" 
	d="
M121.025284,176.410507 
	C109.064636,172.597763 97.073616,168.743515 85.189339,164.584259 
	C83.584198,164.022476 81.530174,162.036453 81.363518,160.524750 
	C80.492058,152.619873 80.162529,144.655243 79.620773,136.346436 
	C86.239471,136.346436 92.620735,136.346436 99.224113,136.346436 
	C99.420273,137.249191 99.926018,138.242813 99.784096,139.133209 
	C98.574448,146.722092 102.292702,150.221786 109.361229,151.588211 
	C113.069084,152.304977 116.609375,153.888535 120.607224,155.163010 
	C120.989120,155.245361 120.950989,155.510284 120.964851,155.946381 
	C120.993919,162.921127 121.009125,169.459747 121.024323,175.998383 
	C121.024323,175.998383 121.028465,176.273148 121.025284,176.410507 
z"/>
<path fill="#FF6F03" opacity="1.000000" stroke="none" 
	d="
M120.987175,155.111542 
	C120.996300,145.683029 121.007370,136.388336 121.020355,126.636284 
	C121.022270,126.178917 121.021118,125.999626 121.464394,125.986931 
	C128.843323,125.974236 135.778992,125.974236 142.953293,125.974236 
	C142.524582,133.054810 142.304016,139.525192 141.603531,145.943207 
	C141.459015,147.267242 139.752365,148.982910 138.378159,149.512619 
	C132.649658,151.720810 126.773193,153.545181 120.950989,155.510284 
	C120.950989,155.510284 120.989120,155.245361 120.987175,155.111542 
z"/>
<path fill="#FFFEFD" opacity="1.000000" stroke="none" 
	d="
M120.964851,155.946396 
	C126.773193,153.545181 132.649658,151.720810 138.378159,149.512619 
	C139.752365,148.982910 141.459015,147.267242 141.603531,145.943207 
	C142.304016,139.525192 142.524582,133.054810 142.953293,125.974236 
	C135.778992,125.974236 128.843323,125.974236 121.444702,125.899475 
	C120.981812,119.578865 120.981895,113.333008 120.981750,106.629669 
	C135.112869,106.172188 149.244247,106.172188 163.984146,106.172188 
	C163.700775,110.417747 163.398727,114.493919 163.161880,118.573875 
	C162.379944,132.043793 161.508957,145.510269 160.933655,158.989227 
	C160.790634,162.339798 159.685928,163.977127 156.438873,164.973572 
	C144.845245,168.531433 133.338882,172.373642 121.411911,176.053314 
	C121.009125,169.459747 120.993919,162.921127 120.964851,155.946396 
z"/>
<path fill="#FFFEFD" opacity="1.000000" stroke="none" 
	d="
M121.445023,85.903320 
	C120.981880,79.580940 120.981934,73.334045 120.981750,66.629669 
	C136.110794,66.172188 151.240082,66.172188 166.938400,66.172188 
	C166.467407,72.710190 166.009277,79.069496 165.511536,85.978813 
	C150.768982,85.978813 136.338608,85.978813 121.445023,85.903320 
z"/>
<path fill="#E65100" opacity="1.000000" stroke="none" 
	d="
M121.021133,105.360794 
	C113.575127,105.817688 106.125679,105.817688 98.078918,105.817688 
	C97.579765,99.433350 97.081833,93.064720 96.531654,86.027779 
	C104.609795,86.027779 112.354065,86.027779 120.561523,86.105049 
	C121.022377,92.422844 121.020042,98.663376 121.021133,105.360794 
z"/>
</svg>