<svg version="1.1" id="Layer_1" xmlns="http://www.w3.org/2000/svg" xmlns:xlink="http://www.w3.org/1999/xlink" x="0px" y="0px"
	 width="94" viewBox="0 0 820 820" enable-background="new 0 0 820 820" xml:space="preserve">
<path  opacity="000000" stroke="none" 
	d="
M565.000000,821.000000 
	C376.666718,821.000000 188.833450,821.000000 1.000126,821.000000 
	C1.000084,547.666809 1.000084,274.333618 1.000042,1.000309 
	C274.333099,1.000206 547.666199,1.000206 820.999512,1.000103 
	C820.999634,274.333038 820.999634,547.666077 820.999817,820.999512 
	C735.833313,821.000000 650.666687,821.000000 565.000000,821.000000 
M512.590759,577.068848 
	C510.500854,578.349548 508.429352,579.661499 506.317627,580.905212 
	C499.832397,584.724548 493.494293,584.331909 487.042694,580.576111 
	C471.133179,571.314270 455.273499,561.952026 439.132172,553.107666 
	C425.991364,545.907349 424.845978,531.756897 437.624878,523.855103 
	C451.886993,515.036255 466.535370,506.838348 481.072205,498.468475 
	C497.156036,489.207855 513.337646,480.116821 529.408630,470.834229 
	C536.616760,466.670807 540.164734,460.785828 540.141602,451.891724 
	C539.908813,362.396820 539.999878,272.901062 539.999878,183.405563 
	C539.999878,182.238953 540.118164,181.058212 539.981140,179.907883 
	C538.217041,165.093140 525.764709,160.498337 515.377686,165.522751 
	C501.773773,172.103241 488.910156,180.221756 475.770844,187.753296 
	C458.832794,197.462280 441.947357,207.262970 425.019958,216.990646 
	C410.622589,225.264389 396.173340,233.448074 381.791870,241.749252 
	C365.719635,251.026382 349.791748,260.559021 333.593842,269.609589 
	C329.062469,272.141479 323.794739,273.068695 318.714935,270.187408 
	C304.963379,262.387421 291.167206,254.665115 277.462952,246.782928 
	C251.199829,231.677353 224.993530,216.473068 198.753220,201.327774 
	C179.009949,189.932388 159.262878,178.543488 139.491058,167.197815 
	C133.038925,163.495361 126.253662,162.093002 119.423790,165.955566 
	C112.687897,169.764969 110.903381,175.971970 110.914398,183.482773 
	C111.046616,273.644714 111.044235,363.806976 110.921532,453.968964 
	C110.910912,461.770752 114.117805,466.730988 120.801498,470.463654 
	C136.161377,479.041687 151.156158,488.280212 166.606873,496.684875 
	C171.421448,499.303864 177.432144,501.947327 182.529877,501.367401 
	C193.724121,500.093933 197.921494,493.152496 197.948212,481.681976 
	C198.067749,430.351501 197.997681,379.020569 198.002640,327.689819 
	C198.003311,320.740326 202.254715,315.536865 208.803314,312.881561 
	C216.287567,309.846924 221.855118,314.051514 227.483582,317.272430 
	C257.302795,334.336548 286.940491,351.717712 316.726440,368.840485 
	C322.697693,372.273163 329.021973,371.887665 334.980560,368.458771 
	C349.376221,360.174652 363.708282,351.780182 378.075867,343.447235 
	C394.699310,333.805878 411.404114,324.302246 427.938721,314.511078 
	C439.584961,307.614624 452.745087,316.121613 452.876831,326.700256 
	C453.231720,355.194427 453.027344,383.696014 452.904968,412.194061 
	C452.899445,413.483337 451.838379,415.245514 450.733246,415.967957 
	C446.511719,418.727753 442.095276,421.194977 437.707397,423.693787 
	C420.884186,433.274292 404.021759,442.786011 387.215637,452.396393 
	C367.572662,463.628967 348.001282,474.987183 328.319611,486.151306 
	C325.834320,487.561035 324.922241,489.073608 324.933197,491.937073 
	C325.042999,520.601868 324.990204,549.267273 325.007507,577.932495 
	C325.011414,584.434326 328.289185,589.018066 333.694275,592.262756 
	C337.044830,594.274109 340.406830,596.268250 343.801270,598.204224 
	C361.251587,608.156921 378.731781,618.057312 396.166870,628.036560 
	C411.427887,636.771423 426.619904,645.626953 441.884766,654.354919 
	C457.280121,663.157532 472.710449,671.899414 488.161163,680.604614 
	C494.027740,683.909973 499.992096,683.853638 505.898407,680.590820 
	C511.740173,677.363770 517.624451,674.209778 523.403259,670.873291 
	C553.311157,653.604980 583.162842,636.239319 613.088928,619.002625 
	C642.713196,601.939697 672.370178,584.932739 702.090210,568.037354 
	C708.314636,564.498901 711.050842,559.510193 711.041870,552.430603 
	C710.967834,493.933655 710.668091,435.432983 711.295288,376.942688 
	C711.413086,365.959625 698.336792,355.163452 685.618591,362.220123 
	C669.970093,370.902649 654.753662,380.372955 639.009399,388.870728 
	C629.034607,394.254456 624.411865,401.174225 624.740234,413.097809 
	C625.538208,442.074371 625.003967,471.087738 624.997437,500.086273 
	C624.995544,508.663422 621.594971,515.146057 613.671021,519.103027 
	C609.444519,521.213562 605.455566,523.798462 601.350952,526.154480 
	C582.287170,537.097107 563.207031,548.011292 544.160095,558.983154 
	C533.854858,564.919434 523.604370,570.950867 512.590759,577.068848 
M638.180481,288.671661 
	C643.937622,290.648529 649.454285,289.738617 654.525513,286.742310 
	C669.526917,277.878693 684.341736,268.696930 699.403259,259.938324 
	C707.487671,255.237045 711.535767,249.202438 711.191833,239.306686 
	C710.532471,220.336166 710.236694,201.285324 711.258179,182.346985 
	C711.985046,168.870514 697.146118,159.497101 685.612549,166.683289 
	C669.333801,176.825989 652.731506,186.450729 636.232483,196.237808 
	C629.640991,200.147827 626.975708,206.026794 626.988647,213.462509 
	C627.022705,232.955704 626.841553,252.450958 627.081787,271.941254 
	C627.172058,279.266693 630.216064,285.254456 638.180481,288.671661 
z"/>
<path fill="#FFF" opacity="1.000000" stroke="none" 
	d="
M512.959961,577.004150 
	C523.604370,570.950867 533.854858,564.919434 544.160095,558.983154 
	C563.207031,548.011292 582.287170,537.097107 601.350952,526.154480 
	C605.455566,523.798462 609.444519,521.213562 613.671021,519.103027 
	C621.594971,515.146057 624.995544,508.663422 624.997437,500.086273 
	C625.003967,471.087738 625.538208,442.074371 624.740234,413.097809 
	C624.411865,401.174225 629.034607,394.254456 639.009399,388.870728 
	C654.753662,380.372955 669.970093,370.902649 685.618591,362.220123 
	C698.336792,355.163452 711.413086,365.959625 711.295288,376.942688 
	C710.668091,435.432983 710.967834,493.933655 711.041870,552.430603 
	C711.050842,559.510193 708.314636,564.498901 702.090210,568.037354 
	C672.370178,584.932739 642.713196,601.939697 613.088928,619.002625 
	C583.162842,636.239319 553.311157,653.604980 523.403259,670.873291 
	C517.624451,674.209778 511.740173,677.363770 505.898407,680.590820 
	C499.992096,683.853638 494.027740,683.909973 488.161163,680.604614 
	C472.710449,671.899414 457.280121,663.157532 441.884766,654.354919 
	C426.619904,645.626953 411.427887,636.771423 396.166870,628.036560 
	C378.731781,618.057312 361.251587,608.156921 343.801270,598.204224 
	C340.406830,596.268250 337.044830,594.274109 333.694275,592.262756 
	C328.289185,589.018066 325.011414,584.434326 325.007507,577.932495 
	C324.990204,549.267273 325.042999,520.601868 324.933197,491.937073 
	C324.922241,489.073608 325.834320,487.561035 328.319611,486.151306 
	C348.001282,474.987183 367.572662,463.628967 387.215637,452.396393 
	C404.021759,442.786011 420.884186,433.274292 437.707397,423.693787 
	C442.095276,421.194977 446.511719,418.727753 450.733246,415.967957 
	C451.838379,415.245514 452.899445,413.483337 452.904968,412.194061 
	C453.027344,383.696014 453.231720,355.194427 452.876831,326.700256 
	C452.745087,316.121613 439.584961,307.614624 427.938721,314.511078 
	C411.404114,324.302246 394.699310,333.805878 378.075867,343.447235 
	C363.708282,351.780182 349.376221,360.174652 334.980560,368.458771 
	C329.021973,371.887665 322.697693,372.273163 316.726440,368.840485 
	C286.940491,351.717712 257.302795,334.336548 227.483582,317.272430 
	C221.855118,314.051514 216.287567,309.846924 208.803314,312.881561 
	C202.254715,315.536865 198.003311,320.740326 198.002640,327.689819 
	C197.997681,379.020569 198.067749,430.351501 197.948212,481.681976 
	C197.921494,493.152496 193.724121,500.093933 182.529877,501.367401 
	C177.432144,501.947327 171.421448,499.303864 166.606873,496.684875 
	C151.156158,488.280212 136.161377,479.041687 120.801498,470.463654 
	C114.117805,466.730988 110.910912,461.770752 110.921532,453.968964 
	C111.044235,363.806976 111.046616,273.644714 110.914398,183.482773 
	C110.903381,175.971970 112.687897,169.764969 119.423790,165.955566 
	C126.253662,162.093002 133.038925,163.495361 139.491058,167.197815 
	C159.262878,178.543488 179.009949,189.932388 198.753220,201.327774 
	C224.993530,216.473068 251.199829,231.677353 277.462952,246.782928 
	C291.167206,254.665115 304.963379,262.387421 318.714935,270.187408 
	C323.794739,273.068695 329.062469,272.141479 333.593842,269.609589 
	C349.791748,260.559021 365.719635,251.026382 381.791870,241.749252 
	C396.173340,233.448074 410.622589,225.264389 425.019958,216.990646 
	C441.947357,207.262970 458.832794,197.462280 475.770844,187.753296 
	C488.910156,180.221756 501.773773,172.103241 515.377686,165.522751 
	C525.764709,160.498337 538.217041,165.093140 539.981140,179.907883 
	C540.118164,181.058212 539.999878,182.238953 539.999878,183.405563 
	C539.999878,272.901062 539.908813,362.396820 540.141602,451.891724 
	C540.164734,460.785828 536.616760,466.670807 529.408630,470.834229 
	C513.337646,480.116821 497.156036,489.207855 481.072205,498.468475 
	C466.535370,506.838348 451.886993,515.036255 437.624878,523.855103 
	C424.845978,531.756897 425.991364,545.907349 439.132172,553.107666 
	C455.273499,561.952026 471.133179,571.314270 487.042694,580.576111 
	C493.494293,584.331909 499.832397,584.724548 506.317627,580.905212 
	C508.429352,579.661499 510.500854,578.349548 512.959961,577.004150 
z"/>
<path fill="#FFF" opacity="1.000000" stroke="none" 
	d="
M637.886353,288.404846 
	C630.216064,285.254456 627.172058,279.266693 627.081787,271.941254 
	C626.841553,252.450958 627.022705,232.955704 626.988647,213.462509 
	C626.975708,206.026794 629.640991,200.147827 636.232483,196.237808 
	C652.731506,186.450729 669.333801,176.825989 685.612549,166.683289 
	C697.146118,159.497101 711.985046,168.870514 711.258179,182.346985 
	C710.236694,201.285324 710.532471,220.336166 711.191833,239.306686 
	C711.535767,249.202438 707.487671,255.237045 699.403259,259.938324 
	C684.341736,268.696930 669.526917,277.878693 654.525513,286.742310 
	C649.454285,289.738617 643.937622,290.648529 637.886353,288.404846 
z"/>
</svg>