<svg version="1.1" id="Layer_1" xmlns="http://www.w3.org/2000/svg" xmlns:xlink="http://www.w3.org/1999/xlink" x="0px" y="0px"
	 width="84" viewBox="0 0 240 240" enable-background="new 0 0 240 240" xml:space="preserve">
<path fill="#000000" opacity="000000" stroke="none" 
	d="
M138.000000,241.000000 
	C92.000000,241.000000 46.500004,241.000000 1.000006,241.000000 
	C1.000004,161.000000 1.000004,81.000015 1.000002,1.000017 
	C80.999992,1.000011 160.999985,1.000011 240.999969,1.000006 
	C240.999985,80.999985 240.999985,160.999969 241.000000,240.999969 
	C206.833328,241.000000 172.666672,241.000000 138.000000,241.000000 
M118.349144,13.974682 
	C115.901291,14.795991 113.262756,15.271559 111.038490,16.498274 
	C101.249176,21.897242 91.560875,27.480761 81.870522,33.057442 
	C65.770554,42.322777 49.690083,51.622074 33.616405,60.932972 
	C28.290167,64.018265 25.960917,68.707787 25.972818,74.846100 
	C26.032583,105.670448 25.857752,136.496521 26.194302,167.317307 
	C26.233040,170.864929 28.148458,175.133621 30.606451,177.731216 
	C33.903450,181.215454 38.365463,183.806885 42.705872,186.048676 
	C50.689392,190.172089 58.606403,195.245331 67.174309,197.223251 
	C79.935349,200.169189 91.796028,195.507675 95.545845,181.755325 
	C96.657272,177.679199 96.917183,173.271835 96.937019,169.013321 
	C97.058037,143.021347 96.997559,117.028557 96.997398,91.036041 
	C96.997337,80.957954 96.989624,81.201149 87.101547,80.896996 
	C82.261520,80.748116 80.865952,82.294533 80.900841,87.107796 
	C81.104965,115.264877 81.126656,143.425583 80.817108,171.580734 
	C80.783890,174.602158 78.924515,179.250702 76.660698,180.219299 
	C73.152283,181.720383 68.032188,181.964539 64.548439,180.490005 
	C57.331585,177.435364 50.656696,173.035873 43.961861,168.863770 
	C42.531921,167.972656 41.134735,165.700729 41.124908,164.056564 
	C40.953648,135.399170 40.945461,106.740097 41.130650,78.082878 
	C41.142601,76.233894 42.548622,73.662231 44.099663,72.680763 
	C51.039101,68.289627 58.271568,64.362358 65.388634,60.250984 
	C81.904678,50.710022 98.480400,41.269421 114.884087,31.538893 
	C119.227295,28.962534 122.832100,28.847261 127.128212,31.546242 
	C134.640656,36.265858 142.411774,40.575874 150.101974,45.009892 
	C166.051697,54.206211 182.057816,63.306202 197.916458,72.656624 
	C199.395386,73.528618 200.852386,75.899261 200.862778,77.583038 
	C201.041351,106.573593 201.017303,135.565674 200.904633,164.556885 
	C200.899506,165.874100 199.984634,167.725601 198.909027,168.410843 
	C193.229492,172.029129 187.391891,175.404129 181.554947,178.769577 
	C162.896454,189.527649 144.156769,200.146851 125.591606,211.063171 
	C122.081726,213.126984 119.660934,212.939606 116.188225,210.887070 
	C107.474968,205.737137 99.191338,196.822372 87.796059,205.611313 
	C86.587425,206.543503 85.322922,207.403244 84.084343,208.296600 
	C85.020027,209.323456 85.777802,210.648911 86.919868,211.329422 
	C95.252022,216.294312 103.627594,221.189026 112.057968,225.985489 
	C117.874542,229.294815 123.829979,229.433441 129.710587,226.067047 
	C155.244095,211.450302 180.810104,196.889297 206.256088,182.121552 
	C211.471359,179.094849 215.988770,175.077988 215.992081,168.206055 
	C216.007248,136.715118 216.108231,105.223190 215.825302,73.734795 
	C215.797668,70.659126 214.170273,66.586739 211.870026,64.739540 
	C205.896713,59.942661 199.286011,55.870472 192.657974,51.970875 
	C173.241791,40.547371 153.728897,29.286461 134.170288,18.108116 
	C129.591522,15.491218 125.034050,12.184787 118.349144,13.974682 
M184.999496,138.505310 
	C184.841980,132.122711 183.394608,125.656006 177.699829,122.560623 
	C171.354294,119.111511 164.182556,116.852654 157.111862,115.148735 
	C147.733963,112.888802 138.028687,111.994713 128.636169,109.783020 
	C126.131935,109.193336 122.598289,106.001869 122.515312,103.888016 
	C122.414116,101.310089 124.853180,97.650993 127.251892,96.143410 
	C134.010315,91.895744 141.859543,92.606651 149.422714,93.306198 
	C157.822342,94.083115 163.917938,98.044434 166.150253,106.780365 
	C166.382767,107.690285 167.937973,108.792259 168.954590,108.874321 
	C172.265701,109.141609 175.655106,109.280899 178.920654,108.813927 
	C180.063614,108.650482 181.956360,106.399376 181.776901,105.417885 
	C179.043961,90.470497 175.114029,84.508270 159.315720,80.157593 
	C149.913132,77.568230 140.063354,76.932678 130.404266,79.132652 
	C122.373329,80.961777 114.552727,83.406708 109.559952,90.929565 
	C104.100983,99.154854 104.701324,114.018578 112.375427,119.981804 
	C119.353592,125.404236 127.507408,126.690323 135.797012,128.034744 
	C144.841187,129.501526 153.854889,131.169891 162.853027,132.900345 
	C166.697006,133.639587 168.204086,136.247971 168.037689,140.139893 
	C167.847061,144.598862 164.540161,149.112442 159.096344,149.735031 
	C150.900009,150.672394 142.534531,151.303101 134.339096,150.709427 
	C127.654434,150.225174 121.258217,147.267502 119.887787,139.456009 
	C119.016571,134.490082 116.344849,133.371292 111.980919,133.972321 
	C110.672592,134.152512 109.298630,134.149857 107.989067,133.974518 
	C103.328377,133.350510 102.490822,135.978058 103.085503,139.705872 
	C105.263779,153.360672 112.370438,160.728912 126.093559,164.029648 
	C137.534470,166.781433 149.185699,167.284531 160.499512,164.750092 
	C176.046326,161.267395 183.474838,154.803116 184.999496,138.505310 
z"/>
<path fill="#fff" opacity="1.000000" stroke="none" 
	d="
M118.756584,13.933273 
	C125.034050,12.184787 129.591522,15.491218 134.170288,18.108116 
	C153.728897,29.286461 173.241791,40.547371 192.657974,51.970875 
	C199.286011,55.870472 205.896713,59.942661 211.870026,64.739540 
	C214.170273,66.586739 215.797668,70.659126 215.825302,73.734795 
	C216.108231,105.223190 216.007248,136.715118 215.992081,168.206055 
	C215.988770,175.077988 211.471359,179.094849 206.256088,182.121552 
	C180.810104,196.889297 155.244095,211.450302 129.710587,226.067047 
	C123.829979,229.433441 117.874542,229.294815 112.057968,225.985489 
	C103.627594,221.189026 95.252022,216.294312 86.919868,211.329422 
	C85.777802,210.648911 85.020027,209.323456 84.084343,208.296600 
	C85.322922,207.403244 86.587425,206.543503 87.796059,205.611313 
	C99.191338,196.822372 107.474968,205.737137 116.188225,210.887070 
	C119.660934,212.939606 122.081726,213.126984 125.591606,211.063171 
	C144.156769,200.146851 162.896454,189.527649 181.554947,178.769577 
	C187.391891,175.404129 193.229492,172.029129 198.909027,168.410843 
	C199.984634,167.725601 200.899506,165.874100 200.904633,164.556885 
	C201.017303,135.565674 201.041351,106.573593 200.862778,77.583038 
	C200.852386,75.899261 199.395386,73.528618 197.916458,72.656624 
	C182.057816,63.306202 166.051697,54.206211 150.101974,45.009892 
	C142.411774,40.575874 134.640656,36.265858 127.128212,31.546242 
	C122.832100,28.847261 119.227295,28.962534 114.884087,31.538893 
	C98.480400,41.269421 81.904678,50.710022 65.388634,60.250984 
	C58.271568,64.362358 51.039101,68.289627 44.099663,72.680763 
	C42.548622,73.662231 41.142601,76.233894 41.130650,78.082878 
	C40.945461,106.740097 40.953648,135.399170 41.124908,164.056564 
	C41.134735,165.700729 42.531921,167.972656 43.961861,168.863770 
	C50.656696,173.035873 57.331585,177.435364 64.548439,180.490005 
	C68.032188,181.964539 73.152283,181.720383 76.660698,180.219299 
	C78.924515,179.250702 80.783890,174.602158 80.817108,171.580734 
	C81.126656,143.425583 81.104965,115.264877 80.900841,87.107796 
	C80.865952,82.294533 82.261520,80.748116 87.101547,80.896996 
	C96.989624,81.201149 96.997337,80.957954 96.997398,91.036041 
	C96.997559,117.028557 97.058037,143.021347 96.937019,169.013321 
	C96.917183,173.271835 96.657272,177.679199 95.545845,181.755325 
	C91.796028,195.507675 79.935349,200.169189 67.174309,197.223251 
	C58.606403,195.245331 50.689392,190.172089 42.705872,186.048676 
	C38.365463,183.806885 33.903450,181.215454 30.606451,177.731216 
	C28.148458,175.133621 26.233040,170.864929 26.194302,167.317307 
	C25.857752,136.496521 26.032583,105.670448 25.972818,74.846100 
	C25.960917,68.707787 28.290167,64.018265 33.616405,60.932972 
	C49.690083,51.622074 65.770554,42.322777 81.870522,33.057442 
	C91.560875,27.480761 101.249176,21.897242 111.038490,16.498274 
	C113.262756,15.271559 115.901291,14.795991 118.756584,13.933273 
z"/>
<path fill="#fff" opacity="1.000000" stroke="none" 
	d="
M184.999084,138.945526 
	C183.474838,154.803116 176.046326,161.267395 160.499512,164.750092 
	C149.185699,167.284531 137.534470,166.781433 126.093559,164.029648 
	C112.370438,160.728912 105.263779,153.360672 103.085503,139.705872 
	C102.490822,135.978058 103.328377,133.350510 107.989067,133.974518 
	C109.298630,134.149857 110.672592,134.152512 111.980919,133.972321 
	C116.344849,133.371292 119.016571,134.490082 119.887787,139.456009 
	C121.258217,147.267502 127.654434,150.225174 134.339096,150.709427 
	C142.534531,151.303101 150.900009,150.672394 159.096344,149.735031 
	C164.540161,149.112442 167.847061,144.598862 168.037689,140.139893 
	C168.204086,136.247971 166.697006,133.639587 162.853027,132.900345 
	C153.854889,131.169891 144.841187,129.501526 135.797012,128.034744 
	C127.507408,126.690323 119.353592,125.404236 112.375427,119.981804 
	C104.701324,114.018578 104.100983,99.154854 109.559952,90.929565 
	C114.552727,83.406708 122.373329,80.961777 130.404266,79.132652 
	C140.063354,76.932678 149.913132,77.568230 159.315720,80.157593 
	C175.114029,84.508270 179.043961,90.470497 181.776901,105.417885 
	C181.956360,106.399376 180.063614,108.650482 178.920654,108.813927 
	C175.655106,109.280899 172.265701,109.141609 168.954590,108.874321 
	C167.937973,108.792259 166.382767,107.690285 166.150253,106.780365 
	C163.917938,98.044434 157.822342,94.083115 149.422714,93.306198 
	C141.859543,92.606651 134.010315,91.895744 127.251892,96.143410 
	C124.853180,97.650993 122.414116,101.310089 122.515312,103.888016 
	C122.598289,106.001869 126.131935,109.193336 128.636169,109.783020 
	C138.028687,111.994713 147.733963,112.888802 157.111862,115.148735 
	C164.182556,116.852654 171.354294,119.111511 177.699829,122.560623 
	C183.394608,125.656006 184.841980,132.122711 184.999084,138.945526 
z"/>
</svg>