<svg version="1.1" id="Layer_1" xmlns="http://www.w3.org/2000/svg" xmlns:xlink="http://www.w3.org/1999/xlink" x="0px" y="0px"
	 width="84" viewBox="0 0 640 660" enable-background="new 0 0 640 660" xml:space="preserve">
<path fill="#000000" opacity="000000" stroke="none" 
	d="
M641.000000,181.000000 
	C641.000000,341.333313 641.000000,501.166626 641.000000,661.000000 
	C427.666748,661.000000 214.333466,661.000000 1.000150,661.000000 
	C1.000100,441.000092 1.000100,221.000214 1.000050,1.000239 
	C214.333191,1.000159 427.666382,1.000159 640.999756,1.000080 
	C641.000000,60.833332 641.000000,120.666664 641.000000,181.000000 
M328.509888,25.702440 
	C303.550537,26.270491 280.218414,32.371574 258.947845,45.808899 
	C257.483612,46.733902 254.867081,46.568821 253.030136,46.049171 
	C242.167419,42.976257 231.488968,39.194279 220.541092,36.490871 
	C186.343002,28.046181 151.797409,23.489780 116.679893,30.035543 
	C81.175278,36.653465 53.100578,54.266911 36.401318,87.133003 
	C18.922453,121.533463 17.064848,158.523178 21.524799,195.857315 
	C25.869301,232.225052 34.504589,267.845795 44.092342,303.176392 
	C54.895618,342.986267 67.363182,382.232727 86.296593,419.081024 
	C94.004227,434.081665 102.827377,448.390625 115.488594,459.867920 
	C123.686798,467.299561 132.917435,472.683746 144.361435,473.005371 
	C158.911148,473.414246 169.687912,465.948334 178.982910,455.846344 
	C184.957397,449.353180 190.425858,442.397522 196.270050,435.780731 
	C208.383301,422.066040 220.595886,408.439087 231.708145,395.965332 
	C244.928162,399.531067 256.949036,402.773346 268.903320,405.997681 
	C261.521667,417.290253 252.742630,427.573669 237.679718,429.950928 
	C232.926895,430.701019 228.150497,431.665100 223.583145,433.143616 
	C216.359802,435.481995 208.764099,437.413025 202.301880,441.187317 
	C192.355331,446.996674 191.345978,458.139313 199.758347,466.018921 
	C204.016479,470.007416 209.316711,473.642426 214.800446,475.439240 
	C248.541122,486.494965 280.676605,485.090973 309.375580,461.391449 
	C309.678131,461.141632 310.194275,461.150421 310.970184,460.941864 
	C310.970184,462.512543 310.934875,463.803070 310.975433,465.091217 
	C311.976593,496.890320 312.745880,528.699280 314.083740,560.484375 
	C314.883667,579.488770 319.131653,597.656433 329.828705,613.895813 
	C339.949738,629.260620 353.532227,639.298279 371.910278,642.346802 
	C386.347107,644.741577 400.367188,642.408264 414.401123,639.042114 
	C450.266663,630.439575 472.695496,608.717896 478.787598,572.017700 
	C483.555206,543.296143 487.052582,514.362122 490.997650,485.506561 
	C492.479828,474.665344 493.632904,463.779175 494.963867,452.681244 
	C509.043854,456.398254 522.807068,456.288300 536.642517,455.006714 
	C560.594238,452.788055 583.187561,446.443695 602.384338,431.421417 
	C609.201416,426.086761 615.649353,419.628723 620.378052,412.441467 
	C626.313660,403.419952 620.570312,393.156006 609.821655,391.966858 
	C605.431702,391.481201 600.814087,391.794495 596.448181,392.574188 
	C579.540710,395.593750 562.643127,398.838257 545.377808,396.909363 
	C539.580505,396.261688 533.928711,394.310883 527.677612,392.829437 
	C529.093506,390.465729 529.733887,389.328125 530.437805,388.231323 
	C563.699951,336.407013 588.899719,280.935211 605.401123,221.593002 
	C614.396362,189.244019 620.957947,156.475845 618.966675,122.618217 
	C618.178406,109.214508 615.883789,96.027100 607.335022,85.054741 
	C585.966370,57.628021 558.749695,38.314785 525.511169,28.004992 
	C478.964539,13.567320 432.549011,16.467880 386.333710,30.024113 
	C384.181274,30.655483 381.678833,31.212490 379.581726,30.736511 
	C363.083771,26.991978 346.393188,25.422924 328.509888,25.702440 
z"/>
<path fill="#0000" opacity="1.000000" stroke="none" 
	d="
M329.007751,25.683964 
	C346.393188,25.422924 363.083771,26.991978 379.581726,30.736511 
	C381.678833,31.212490 384.181274,30.655483 386.333710,30.024113 
	C432.549011,16.467880 478.964539,13.567320 525.511169,28.004992 
	C558.749695,38.314785 585.966370,57.628021 607.335022,85.054741 
	C615.883789,96.027100 618.178406,109.214508 618.966675,122.618217 
	C620.957947,156.475845 614.396362,189.244019 605.401123,221.593002 
	C588.899719,280.935211 563.699951,336.407013 530.437805,388.231323 
	C529.733887,389.328125 529.093506,390.465729 527.677612,392.829437 
	C533.928711,394.310883 539.580505,396.261688 545.377808,396.909363 
	C562.643127,398.838257 579.540710,395.593750 596.448181,392.574188 
	C600.814087,391.794495 605.431702,391.481201 609.821655,391.966858 
	C620.570312,393.156006 626.313660,403.419952 620.378052,412.441467 
	C615.649353,419.628723 609.201416,426.086761 602.384338,431.421417 
	C583.187561,446.443695 560.594238,452.788055 536.642517,455.006714 
	C522.807068,456.288300 509.043854,456.398254 494.963867,452.681244 
	C493.632904,463.779175 492.479828,474.665344 490.997650,485.506561 
	C487.052582,514.362122 483.555206,543.296143 478.787598,572.017700 
	C472.695496,608.717896 450.266663,630.439575 414.401123,639.042114 
	C400.367188,642.408264 386.347107,644.741577 371.910278,642.346802 
	C353.532227,639.298279 339.949738,629.260620 329.828705,613.895813 
	C319.131653,597.656433 314.883667,579.488770 314.083740,560.484375 
	C312.745880,528.699280 311.976593,496.890320 310.975433,465.091217 
	C310.934875,463.803070 310.970184,462.512543 310.970184,460.941864 
	C310.194275,461.150421 309.678131,461.141632 309.375580,461.391449 
	C280.676605,485.090973 248.541122,486.494965 214.800446,475.439240 
	C209.316711,473.642426 204.016479,470.007416 199.758347,466.018921 
	C191.345978,458.139313 192.355331,446.996674 202.301880,441.187317 
	C208.764099,437.413025 216.359802,435.481995 223.583145,433.143616 
	C228.150497,431.665100 232.926895,430.701019 237.679718,429.950928 
	C252.742630,427.573669 261.521667,417.290253 268.903320,405.997681 
	C256.949036,402.773346 244.928162,399.531067 231.708145,395.965332 
	C220.595886,408.439087 208.383301,422.066040 196.270050,435.780731 
	C190.425858,442.397522 184.957397,449.353180 178.982910,455.846344 
	C169.687912,465.948334 158.911148,473.414246 144.361435,473.005371 
	C132.917435,472.683746 123.686798,467.299561 115.488594,459.867920 
	C102.827377,448.390625 94.004227,434.081665 86.296593,419.081024 
	C67.363182,382.232727 54.895618,342.986267 44.092342,303.176392 
	C34.504589,267.845795 25.869301,232.225052 21.524799,195.857315 
	C17.064848,158.523178 18.922453,121.533463 36.401318,87.133003 
	C53.100578,54.266911 81.175278,36.653465 116.679893,30.035543 
	C151.797409,23.489780 186.343002,28.046181 220.541092,36.490871 
	C231.488968,39.194279 242.167419,42.976257 253.030136,46.049171 
	C254.867081,46.568821 257.483612,46.733902 258.947845,45.808899 
	C280.218414,32.371574 303.550537,26.270491 329.007751,25.683964 
M391.206512,53.191624 
	C370.581085,46.500256 349.407837,43.356544 327.757812,44.132366 
	C286.943451,45.594936 255.349167,63.209103 234.058304,98.460236 
	C220.421219,121.039047 213.113525,145.800186 209.008835,171.633713 
	C207.988480,178.055420 207.388092,184.543854 206.481339,191.924011 
	C209.034866,190.764343 210.387985,190.205078 211.692413,189.548965 
	C226.384705,182.158798 241.731583,176.877487 258.213165,175.466385 
	C284.489655,173.216690 307.752716,184.343002 314.171112,214.834274 
	C315.335968,220.368103 316.516479,225.904236 317.458710,231.478363 
	C321.643890,256.238220 323.417542,281.039825 319.055695,306.011505 
	C316.104858,322.904999 309.370880,338.422699 302.700226,354.044525 
	C297.761383,365.610718 293.688385,377.546631 289.281769,389.180267 
	C290.345490,389.752075 290.486298,389.888519 290.634766,389.897430 
	C291.452698,389.946625 292.273438,390.005737 293.091553,389.987396 
	C306.204895,389.693787 316.179993,395.330841 323.347870,406.124390 
	C328.803040,414.338837 330.296051,423.446014 330.044617,433.224670 
	C328.917938,477.043152 328.908173,520.844971 332.948242,564.561035 
	C334.270630,578.869873 337.696564,592.370972 345.770111,604.490295 
	C353.190674,615.629333 363.160614,622.563538 376.601532,624.399719 
	C388.964813,626.088806 400.695312,623.221375 412.544647,620.323730 
	C440.924438,613.383911 456.615417,595.174927 461.057465,566.717102 
	C463.290039,552.414185 465.811371,538.139587 467.472260,523.767761 
	C471.254303,491.041962 474.673523,458.273132 478.055054,425.502686 
	C479.333801,413.110352 482.557343,401.849579 493.828644,394.767548 
	C497.281708,392.597870 501.172760,391.125214 505.682648,388.935516 
	C492.169769,374.962280 483.783234,357.971039 475.372650,340.972809 
	C464.831207,319.667938 453.487976,298.732117 443.705170,277.088165 
	C435.591248,259.136444 430.337524,240.138184 431.064941,220.044846 
	C431.868011,197.863617 444.215668,182.027542 465.481995,175.657059 
	C477.967651,171.916901 490.709686,171.485229 503.581085,172.532822 
	C505.294098,172.672226 507.010101,172.774200 509.567871,172.952194 
	C506.774261,166.489914 504.601746,160.734467 501.869446,155.258347 
	C478.046295,107.512115 443.215149,71.604050 391.206512,53.191624 
M49.676853,247.779129 
	C56.937019,275.600555 63.572990,303.604126 71.623665,331.194885 
	C80.622246,362.034180 91.621346,392.260925 108.125259,420.016388 
	C113.683701,429.364288 120.426086,438.327148 128.061752,446.047302 
	C139.974167,458.091553 151.302719,457.513397 163.233063,445.464264 
	C168.961639,439.678650 173.976562,433.189972 179.372955,427.071106 
	C191.920898,412.843140 204.504181,398.646362 217.222534,384.268036 
	C216.419144,383.427490 215.657684,382.579559 214.843170,381.786102 
	C191.258865,358.810669 182.368866,330.926331 185.529877,298.317078 
	C187.420929,278.808746 188.879288,259.067596 188.073547,239.532501 
	C186.789642,208.404633 187.454666,177.650330 194.966919,147.278946 
	C202.541260,116.656548 214.564514,88.281090 236.389221,64.821724 
	C237.375443,63.761642 238.311035,62.654457 239.789795,60.981319 
	C231.622955,58.698151 224.162766,56.404827 216.598114,54.533955 
	C185.175934,46.762691 153.449936,42.412773 121.157944,48.026566 
	C83.214539,54.622829 57.441429,75.671585 45.695633,112.890182 
	C38.940746,134.294220 36.429039,156.403000 38.680496,178.516159 
	C41.016842,201.463043 45.740223,224.166885 49.676853,247.779129 
M563.480408,285.926605 
	C574.921875,258.569794 584.587646,230.614761 591.502747,201.758316 
	C597.219666,177.901871 601.571899,153.818024 600.853088,129.158295 
	C600.518372,117.677055 600.001099,105.840813 592.588318,96.276062 
	C575.144775,73.768555 553.017395,57.490944 526.142456,47.726101 
	C497.356171,37.266758 467.702393,35.257416 437.524353,38.337997 
	C430.045929,39.101398 422.633026,40.506893 414.000275,41.794724 
	C415.797821,42.922325 416.319458,43.326508 416.901611,43.603760 
	C462.518402,65.329437 494.696686,100.366440 517.439575,144.836731 
	C526.797913,163.135406 532.684326,181.940262 529.284729,202.922165 
	C527.024353,216.873703 524.337341,230.992218 524.392883,245.025909 
	C524.470337,264.611115 526.872986,284.191254 528.384705,303.765533 
	C530.114502,326.163177 527.138550,347.634186 515.934265,367.462799 
	C514.263916,370.418854 514.705078,372.205750 517.698547,373.870697 
	C535.359497,345.950684 550.396301,316.882538 563.480408,285.926605 
M206.959839,238.527908 
	C207.657806,260.872528 206.304367,283.095734 203.557968,305.281158 
	C199.695847,336.479279 218.692017,369.070923 247.580902,381.245270 
	C255.260056,384.481384 263.232025,386.501251 270.509338,386.001343 
	C276.742615,370.139252 282.368713,355.044067 288.599670,340.202850 
	C293.955475,327.446075 298.964844,314.660828 301.129669,300.902008 
	C305.663757,272.085297 302.002686,243.791733 295.287781,215.811722 
	C291.826660,201.389725 282.263916,194.278168 267.517639,193.904739 
	C245.536957,193.348114 226.243439,201.426331 208.237305,213.157059 
	C206.954849,213.992538 206.069061,216.412262 206.081482,218.087341 
	C206.129532,224.573273 206.616135,231.055969 206.959839,238.527908 
M471.033508,293.404327 
	C481.461487,313.209717 491.889496,333.015137 502.536255,353.236053 
	C503.501007,350.918854 504.325043,349.107605 505.018616,347.247711 
	C512.058533,328.369110 510.929840,308.944580 508.470184,289.539551 
	C505.677246,267.505615 503.928436,245.552429 507.809845,223.433731 
	C509.608032,213.186615 510.486237,202.778030 511.853577,191.867416 
	C496.075989,190.429214 481.374542,189.154846 467.066925,194.613098 
	C457.360321,198.316101 451.425262,205.478271 450.244904,215.711487 
	C449.509735,222.085526 449.589264,228.739990 450.530457,235.086594 
	C453.563812,255.541138 461.728668,274.302063 471.033508,293.404327 
M304.626465,440.095520 
	C312.951355,430.269257 313.258026,421.209930 305.537628,413.178101 
	C299.405701,406.798706 293.406616,406.739685 287.575378,413.229797 
	C284.017670,417.189484 280.455048,421.197906 277.383362,425.530914 
	C269.285980,436.953094 258.348328,443.884949 244.857147,447.059662 
	C240.489990,448.087341 236.114578,449.082794 231.763077,450.173309 
	C226.414383,451.513733 221.086807,452.938293 215.011398,454.518646 
	C238.221649,471.483612 282.261658,464.173462 304.626465,440.095520 
M496.778198,425.640198 
	C496.325745,434.388031 496.426910,434.612396 504.832336,435.989746 
	C508.433563,436.579865 512.095032,437.033356 515.737610,437.103546 
	C542.718750,437.623657 568.494629,433.486359 590.975830,417.077179 
	C593.285706,415.391113 595.464539,413.525604 598.071472,411.451141 
	C587.132751,412.875824 576.955444,414.608917 566.704956,415.444641 
	C549.631287,416.836670 532.707886,416.577545 517.466187,406.916229 
	C516.602417,406.368713 515.279175,406.138031 514.259949,406.306122 
	C502.684662,408.215057 497.994232,413.225861 496.778198,425.640198 
z"/>
<path fill="#fff" opacity="1.000000" stroke="none" 
	d="
M391.574219,53.337013 
	C443.215149,71.604050 478.046295,107.512115 501.869446,155.258347 
	C504.601746,160.734467 506.774261,166.489914 509.567871,172.952194 
	C507.010101,172.774200 505.294098,172.672226 503.581085,172.532822 
	C490.709686,171.485229 477.967651,171.916901 465.481995,175.657059 
	C444.215668,182.027542 431.868011,197.863617 431.064941,220.044846 
	C430.337524,240.138184 435.591248,259.136444 443.705170,277.088165 
	C453.487976,298.732117 464.831207,319.667938 475.372650,340.972809 
	C483.783234,357.971039 492.169769,374.962280 505.682648,388.935516 
	C501.172760,391.125214 497.281708,392.597870 493.828644,394.767548 
	C482.557343,401.849579 479.333801,413.110352 478.055054,425.502686 
	C474.673523,458.273132 471.254303,491.041962 467.472260,523.767761 
	C465.811371,538.139587 463.290039,552.414185 461.057465,566.717102 
	C456.615417,595.174927 440.924438,613.383911 412.544647,620.323730 
	C400.695312,623.221375 388.964813,626.088806 376.601532,624.399719 
	C363.160614,622.563538 353.190674,615.629333 345.770111,604.490295 
	C337.696564,592.370972 334.270630,578.869873 332.948242,564.561035 
	C328.908173,520.844971 328.917938,477.043152 330.044617,433.224670 
	C330.296051,423.446014 328.803040,414.338837 323.347870,406.124390 
	C316.179993,395.330841 306.204895,389.693787 293.091553,389.987396 
	C292.273438,390.005737 291.452698,389.946625 290.634766,389.897430 
	C290.486298,389.888519 290.345490,389.752075 289.281769,389.180267 
	C293.688385,377.546631 297.761383,365.610718 302.700226,354.044525 
	C309.370880,338.422699 316.104858,322.904999 319.055695,306.011505 
	C323.417542,281.039825 321.643890,256.238220 317.458710,231.478363 
	C316.516479,225.904236 315.335968,220.368103 314.171112,214.834274 
	C307.752716,184.343002 284.489655,173.216690 258.213165,175.466385 
	C241.731583,176.877487 226.384705,182.158798 211.692413,189.548965 
	C210.387985,190.205078 209.034866,190.764343 206.481339,191.924011 
	C207.388092,184.543854 207.988480,178.055420 209.008835,171.633713 
	C213.113525,145.800186 220.421219,121.039047 234.058304,98.460236 
	C255.349167,63.209103 286.943451,45.594936 327.757812,44.132366 
	C349.407837,43.356544 370.581085,46.500256 391.574219,53.337013 
z"/>
<path fill="#fff" opacity="1.000000" stroke="none" 
	d="
M49.548256,247.378082 
	C45.740223,224.166885 41.016842,201.463043 38.680496,178.516159 
	C36.429039,156.403000 38.940746,134.294220 45.695633,112.890182 
	C57.441429,75.671585 83.214539,54.622829 121.157944,48.026566 
	C153.449936,42.412773 185.175934,46.762691 216.598114,54.533955 
	C224.162766,56.404827 231.622955,58.698151 239.789795,60.981319 
	C238.311035,62.654457 237.375443,63.761642 236.389221,64.821724 
	C214.564514,88.281090 202.541260,116.656548 194.966919,147.278946 
	C187.454666,177.650330 186.789642,208.404633 188.073547,239.532501 
	C188.879288,259.067596 187.420929,278.808746 185.529877,298.317078 
	C182.368866,330.926331 191.258865,358.810669 214.843170,381.786102 
	C215.657684,382.579559 216.419144,383.427490 217.222534,384.268036 
	C204.504181,398.646362 191.920898,412.843140 179.372955,427.071106 
	C173.976562,433.189972 168.961639,439.678650 163.233063,445.464264 
	C151.302719,457.513397 139.974167,458.091553 128.061752,446.047302 
	C120.426086,438.327148 113.683701,429.364288 108.125259,420.016388 
	C91.621346,392.260925 80.622246,362.034180 71.623665,331.194885 
	C63.572990,303.604126 56.937019,275.600555 49.548256,247.378082 
z"/>
<path fill="#fff" opacity="1.000000" stroke="none" 
	d="
M563.314453,286.272705 
	C550.396301,316.882538 535.359497,345.950684 517.698547,373.870697 
	C514.705078,372.205750 514.263916,370.418854 515.934265,367.462799 
	C527.138550,347.634186 530.114502,326.163177 528.384705,303.765533 
	C526.872986,284.191254 524.470337,264.611115 524.392883,245.025909 
	C524.337341,230.992218 527.024353,216.873703 529.284729,202.922165 
	C532.684326,181.940262 526.797913,163.135406 517.439575,144.836731 
	C494.696686,100.366440 462.518402,65.329437 416.901611,43.603760 
	C416.319458,43.326508 415.797821,42.922325 414.000275,41.794724 
	C422.633026,40.506893 430.045929,39.101398 437.524353,38.337997 
	C467.702393,35.257416 497.356171,37.266758 526.142456,47.726101 
	C553.017395,57.490944 575.144775,73.768555 592.588318,96.276062 
	C600.001099,105.840813 600.518372,117.677055 600.853088,129.158295 
	C601.571899,153.818024 597.219666,177.901871 591.502747,201.758316 
	C584.587646,230.614761 574.921875,258.569794 563.314453,286.272705 
z"/>
<path fill="#fff" opacity="1.000000" stroke="none" 
	d="
M206.949615,238.033890 
	C206.616135,231.055969 206.129532,224.573273 206.081482,218.087341 
	C206.069061,216.412262 206.954849,213.992538 208.237305,213.157059 
	C226.243439,201.426331 245.536957,193.348114 267.517639,193.904739 
	C282.263916,194.278168 291.826660,201.389725 295.287781,215.811722 
	C302.002686,243.791733 305.663757,272.085297 301.129669,300.902008 
	C298.964844,314.660828 293.955475,327.446075 288.599670,340.202850 
	C282.368713,355.044067 276.742615,370.139252 270.509338,386.001343 
	C263.232025,386.501251 255.260056,384.481384 247.580902,381.245270 
	C218.692017,369.070923 199.695847,336.479279 203.557968,305.281158 
	C206.304367,283.095734 207.657806,260.872528 206.949615,238.033890 
M277.636658,205.643234 
	C271.440247,205.443161 265.155731,204.523376 259.075012,205.267975 
	C254.102966,205.876831 252.544296,210.258408 254.421677,214.762299 
	C258.161865,223.735092 269.832977,228.616928 278.559448,224.684158 
	C283.046295,222.662064 287.551392,219.871735 287.532257,214.443253 
	C287.513519,209.119339 282.633850,207.504852 277.636658,205.643234 
z"/>
<path fill="#fff" opacity="1.000000" stroke="none" 
	d="
M470.878357,293.064941 
	C461.728668,274.302063 453.563812,255.541138 450.530457,235.086594 
	C449.589264,228.739990 449.509735,222.085526 450.244904,215.711487 
	C451.425262,205.478271 457.360321,198.316101 467.066925,194.613098 
	C481.374542,189.154846 496.075989,190.429214 511.853577,191.867416 
	C510.486237,202.778030 509.608032,213.186615 507.809845,223.433731 
	C503.928436,245.552429 505.677246,267.505615 508.470184,289.539551 
	C510.929840,308.944580 512.058533,328.369110 505.018616,347.247711 
	C504.325043,349.107605 503.501007,350.918854 502.536255,353.236053 
	C491.889496,333.015137 481.461487,313.209717 470.878357,293.064941 
M491.152802,211.526520 
	C496.247467,204.338943 494.821228,200.179901 486.031494,199.815384 
	C479.952942,199.563278 473.492523,200.946548 467.719055,203.029861 
	C461.886169,205.134583 461.741669,209.512161 466.343353,213.856720 
	C473.554413,220.664841 482.359314,220.029129 491.152802,211.526520 
z"/>
<path fill="#fff" opacity="1.000000" stroke="none" 
	d="
M304.385742,440.359375 
	C282.261658,464.173462 238.221649,471.483612 215.011398,454.518646 
	C221.086807,452.938293 226.414383,451.513733 231.763077,450.173309 
	C236.114578,449.082794 240.489990,448.087341 244.857147,447.059662 
	C258.348328,443.884949 269.285980,436.953094 277.383362,425.530914 
	C280.455048,421.197906 284.017670,417.189484 287.575378,413.229797 
	C293.406616,406.739685 299.405701,406.798706 305.537628,413.178101 
	C313.258026,421.209930 312.951355,430.269257 304.385742,440.359375 
z"/>
<path fill="#fff" opacity="1.000000" stroke="none" 
	d="
M496.811890,425.183838 
	C497.994232,413.225861 502.684662,408.215057 514.259949,406.306122 
	C515.279175,406.138031 516.602417,406.368713 517.466187,406.916229 
	C532.707886,416.577545 549.631287,416.836670 566.704956,415.444641 
	C576.955444,414.608917 587.132751,412.875824 598.071472,411.451141 
	C595.464539,413.525604 593.285706,415.391113 590.975830,417.077179 
	C568.494629,433.486359 542.718750,437.623657 515.737610,437.103546 
	C512.095032,437.033356 508.433563,436.579865 504.832336,435.989746 
	C496.426910,434.612396 496.325745,434.388031 496.811890,425.183838 
z"/>
<path fill="#000" opacity="1.000000" stroke="none" 
	d="
M278.014404,205.767670 
	C282.633850,207.504852 287.513519,209.119339 287.532257,214.443253 
	C287.551392,219.871735 283.046295,222.662064 278.559448,224.684158 
	C269.832977,228.616928 258.161865,223.735092 254.421677,214.762299 
	C252.544296,210.258408 254.102966,205.876831 259.075012,205.267975 
	C265.155731,204.523376 271.440247,205.443161 278.014404,205.767670 
z"/>
<path fill="#000" opacity="1.000000" stroke="none" 
	d="
M490.922119,211.812653 
	C482.359314,220.029129 473.554413,220.664841 466.343353,213.856720 
	C461.741669,209.512161 461.886169,205.134583 467.719055,203.029861 
	C473.492523,200.946548 479.952942,199.563278 486.031494,199.815384 
	C494.821228,200.179901 496.247467,204.338943 490.922119,211.812653 
z"/>
</svg>