<svg version="1.1" id="Layer_1" xmlns="http://www.w3.org/2000/svg" xmlns:xlink="http://www.w3.org/1999/xlink" x="0px" y="0px"
	 width="94px" viewBox="0 0 240 240" enable-background="new 0 0 240 240" xml:space="preserve">
<path  opacity="0" stroke="none" 
	d="
M133.000000,241.000000 
	C88.666672,241.000000 44.833340,241.000000 1.000006,241.000000 
	C1.000004,161.000000 1.000004,81.000015 1.000002,1.000017 
	C80.999992,1.000011 160.999985,1.000011 240.999969,1.000005 
	C240.999985,80.999985 240.999985,160.999969 241.000000,240.999969 
	C205.166672,241.000000 169.333328,241.000000 133.000000,241.000000 
M222.561035,152.067093 
	C222.172180,150.999771 221.835922,149.909775 221.386703,148.868484 
	C211.339462,125.578438 194.341278,108.748291 172.165588,97.142677 
	C156.522217,88.955742 139.771957,84.755608 121.888695,85.895920 
	C119.842529,86.026382 117.321190,85.228676 115.686043,83.985504 
	C111.717567,80.968384 103.319244,79.716286 98.895088,82.046173 
	C92.338974,85.498840 89.828148,91.245743 91.021805,100.066986 
	C91.542595,103.915596 96.871346,109.820831 100.773094,110.873199 
	C107.782707,112.763809 114.617943,110.377792 118.751915,104.886826 
	C119.693352,103.636368 121.381882,102.145737 122.728966,102.143372 
	C128.321411,102.133545 134.070038,101.929588 139.482208,103.094109 
	C170.866455,109.846924 194.753815,126.755737 207.217789,156.930740 
	C215.562622,177.133347 208.917435,196.961548 186.781464,203.413681 
	C175.178329,206.795746 163.017975,206.037476 151.275436,202.164902 
	C149.618103,201.618332 147.115036,201.325272 145.893646,202.182800 
	C141.491211,205.273758 137.469650,208.907227 132.595749,212.918930 
	C138.855713,214.943192 144.419724,217.196945 150.196472,218.526154 
	C168.372833,222.708450 186.411896,223.248825 203.350952,213.836700 
	C213.615723,208.133102 220.819580,199.743988 224.103012,188.142273 
	C227.490646,176.172287 226.452957,164.469894 222.561035,152.067093 
M95.039772,44.447220 
	C108.352356,33.333809 125.925392,35.183716 136.660431,44.182129 
	C146.815765,52.694599 152.942596,63.783169 156.983429,76.198669 
	C157.338684,77.290230 157.854141,78.818863 158.704742,79.180115 
	C163.976807,81.419151 169.366028,83.382309 174.839935,85.484512 
	C174.909729,84.621567 175.065369,84.104378 174.973022,83.636078 
	C171.185959,64.430595 163.989182,46.906498 149.014313,33.588364 
	C134.877594,21.015646 118.109428,16.945036 100.458832,23.265545 
	C78.311806,31.196175 66.901550,49.468819 60.024731,70.933640 
	C54.892963,86.951584 54.882523,103.377022 57.059074,119.823494 
	C58.997658,134.471817 64.547806,147.761551 73.176361,159.816696 
	C74.683769,161.922745 75.816620,164.808411 75.854172,167.352722 
	C75.943184,173.383926 78.808372,178.057373 83.908913,179.623077 
	C88.426567,181.009827 94.272079,181.103485 98.594101,179.395798 
	C105.354164,176.724823 107.859726,168.339203 105.828926,160.822906 
	C104.403969,155.548904 97.479401,150.739563 90.827049,151.120865 
	C87.464882,151.313583 85.634430,149.942184 84.116051,147.460754 
	C83.011292,145.655304 81.985664,143.798203 80.992813,141.928009 
	C73.795517,128.370728 71.401237,113.895218 71.914864,98.629036 
	C72.617378,77.749054 78.702072,59.359745 95.039772,44.447220 
M147.523270,184.967804 
	C151.761932,178.770935 156.193985,172.694290 160.154099,166.324234 
	C162.012314,163.335205 163.654907,160.964340 167.397980,159.863937 
	C173.562225,158.051727 176.322662,152.104416 175.998550,143.329819 
	C175.843231,139.124847 170.562698,132.008774 166.295807,131.309036 
	C160.556686,130.367828 154.618668,130.165207 149.956924,134.644287 
	C145.101334,139.309631 144.783249,145.671707 146.484497,151.257645 
	C147.623138,154.996292 147.080887,157.463577 145.334717,160.160782 
	C142.496674,164.544540 139.921753,169.253967 136.356354,172.985718 
	C116.685577,193.574326 93.602989,206.822723 63.977818,204.985062 
	C41.809387,203.609940 27.302919,186.220413 32.525936,163.919281 
	C34.837650,154.048782 39.367706,145.308350 45.818073,137.458038 
	C47.134861,135.855469 48.072338,133.164398 47.787701,131.174973 
	C47.063625,126.114143 45.548756,121.166451 44.361187,116.218376 
	C44.050831,116.202194 43.854340,116.129875 43.739414,116.197075 
	C43.319481,116.442596 42.870426,116.678360 42.531841,117.017220 
	C26.015491,133.546158 15.003573,152.520920 15.999117,176.821915 
	C16.587952,191.195251 22.633991,202.696915 34.344913,211.050323 
	C50.738438,222.743820 69.225136,223.043152 87.843536,219.442871 
	C111.273880,214.912079 130.738480,202.804214 147.523270,184.967804 
z"/>
<path fill="#fff" opacity="1.000000" stroke="none" 
	d="
M222.742035,152.429565 
	C226.452957,164.469894 227.490646,176.172287 224.103012,188.142273 
	C220.819580,199.743988 213.615723,208.133102 203.350952,213.836700 
	C186.411896,223.248825 168.372833,222.708450 150.196472,218.526154 
	C144.419724,217.196945 138.855713,214.943192 132.595749,212.918930 
	C137.469650,208.907227 141.491211,205.273758 145.893646,202.182800 
	C147.115036,201.325272 149.618103,201.618332 151.275436,202.164902 
	C163.017975,206.037476 175.178329,206.795746 186.781464,203.413681 
	C208.917435,196.961548 215.562622,177.133347 207.217789,156.930740 
	C194.753815,126.755737 170.866455,109.846924 139.482208,103.094109 
	C134.070038,101.929588 128.321411,102.133545 122.728966,102.143372 
	C121.381882,102.145737 119.693352,103.636368 118.751915,104.886826 
	C114.617943,110.377792 107.782707,112.763809 100.773094,110.873199 
	C96.871346,109.820831 91.542595,103.915596 91.021805,100.066986 
	C89.828148,91.245743 92.338974,85.498840 98.895088,82.046173 
	C103.319244,79.716286 111.717567,80.968384 115.686043,83.985504 
	C117.321190,85.228676 119.842529,86.026382 121.888695,85.895920 
	C139.771957,84.755608 156.522217,88.955742 172.165588,97.142677 
	C194.341278,108.748291 211.339462,125.578438 221.386703,148.868484 
	C221.835922,149.909775 222.172180,150.999771 222.742035,152.429565 
z"/>
<path fill="#fff" opacity="1.000000" stroke="none" 
	d="
M94.789604,44.707649 
	C78.702072,59.359745 72.617378,77.749054 71.914864,98.629036 
	C71.401237,113.895218 73.795517,128.370728 80.992813,141.928009 
	C81.985664,143.798203 83.011292,145.655304 84.116051,147.460754 
	C85.634430,149.942184 87.464882,151.313583 90.827049,151.120865 
	C97.479401,150.739563 104.403969,155.548904 105.828926,160.822906 
	C107.859726,168.339203 105.354164,176.724823 98.594101,179.395798 
	C94.272079,181.103485 88.426567,181.009827 83.908913,179.623077 
	C78.808372,178.057373 75.943184,173.383926 75.854172,167.352722 
	C75.816620,164.808411 74.683769,161.922745 73.176361,159.816696 
	C64.547806,147.761551 58.997658,134.471817 57.059074,119.823494 
	C54.882523,103.377022 54.892963,86.951584 60.024731,70.933640 
	C66.901550,49.468819 78.311806,31.196175 100.458832,23.265545 
	C118.109428,16.945036 134.877594,21.015646 149.014313,33.588364 
	C163.989182,46.906498 171.185959,64.430595 174.973022,83.636078 
	C175.065369,84.104378 174.909729,84.621567 174.839935,85.484512 
	C169.366028,83.382309 163.976807,81.419151 158.704742,79.180115 
	C157.854141,78.818863 157.338684,77.290230 156.983429,76.198669 
	C152.942596,63.783169 146.815765,52.694599 136.660431,44.182129 
	C125.925392,35.183716 108.352356,33.333809 94.789604,44.707649 
z"/>
<path fill="#fff" opacity="1.000000" stroke="none" 
	d="
M147.269653,185.220673 
	C130.738480,202.804214 111.273880,214.912079 87.843536,219.442871 
	C69.225136,223.043152 50.738438,222.743820 34.344913,211.050323 
	C22.633991,202.696915 16.587952,191.195251 15.999117,176.821915 
	C15.003573,152.520920 26.015491,133.546158 42.531841,117.017220 
	C42.870426,116.678360 43.319481,116.442596 43.739414,116.197075 
	C43.854340,116.129875 44.050831,116.202194 44.361187,116.218376 
	C45.548756,121.166451 47.063625,126.114143 47.787701,131.174973 
	C48.072338,133.164398 47.134861,135.855469 45.818073,137.458038 
	C39.367706,145.308350 34.837650,154.048782 32.525936,163.919281 
	C27.302919,186.220413 41.809387,203.609940 63.977818,204.985062 
	C93.602989,206.822723 116.685577,193.574326 136.356354,172.985718 
	C139.921753,169.253967 142.496674,164.544540 145.334717,160.160782 
	C147.080887,157.463577 147.623138,154.996292 146.484497,151.257645 
	C144.783249,145.671707 145.101334,139.309631 149.956924,134.644287 
	C154.618668,130.165207 160.556686,130.367828 166.295807,131.309036 
	C170.562698,132.008774 175.843231,139.124847 175.998550,143.329819 
	C176.322662,152.104416 173.562225,158.051727 167.397980,159.863937 
	C163.654907,160.964340 162.012314,163.335205 160.154099,166.324234 
	C156.193985,172.694290 151.761932,178.770935 147.269653,185.220673 
z"/>
</svg>