<svg version="1.1" id="Layer_1" xmlns="http://www.w3.org/2000/svg" xmlns:xlink="http://www.w3.org/1999/xlink" x="0px" y="0px"
	 width="64" viewBox="0 0 240 240" enable-background="new 0 0 240 240" xml:space="preserve">
<path fill="#000000" opacity="000000" stroke="none" 
	d="
M165.000000,241.000000 
	C110.000000,241.000000 55.500008,241.000000 1.000007,241.000000 
	C1.000005,161.000015 1.000005,81.000015 1.000002,1.000018 
	C80.999985,1.000012 160.999969,1.000012 240.999969,1.000006 
	C240.999969,80.999985 240.999969,160.999969 240.999985,240.999969 
	C215.833328,241.000000 190.666672,241.000000 165.000000,241.000000 
M115.500000,210.999298 
	C147.241272,210.999298 178.982559,210.999298 210.595627,210.999298 
	C210.595627,150.583237 210.595627,90.887085 210.595627,31.271812 
	C150.613510,31.271812 91.035454,31.271812 31.315939,31.271812 
	C31.315939,91.239029 31.315939,150.934708 31.315939,210.999298 
	C59.253067,210.999298 86.876534,210.999298 115.500000,210.999298 
z"/>
<path fill="#fff" opacity="1.000000" stroke="none" 
	d="
M115.000000,210.999298 
	C86.876534,210.999298 59.253067,210.999298 31.315939,210.999298 
	C31.315939,150.934708 31.315939,91.239029 31.315939,31.271812 
	C91.035454,31.271812 150.613510,31.271812 210.595627,31.271812 
	C210.595627,90.887085 210.595627,150.583237 210.595627,210.999298 
	C178.982559,210.999298 147.241272,210.999298 115.000000,210.999298 
M145.003510,129.702240 
	C144.815918,132.683060 144.276108,135.691086 144.503738,138.639847 
	C145.341797,149.497314 152.450104,155.765152 161.216415,160.692001 
	C166.575851,163.704117 172.267944,166.240173 177.248489,169.780807 
	C183.260574,174.054764 181.907181,182.048325 174.800110,184.007431 
	C170.802002,185.109528 166.128448,185.173859 162.066330,184.291565 
	C156.341385,183.048141 150.901215,180.493607 145.154617,178.433456 
	C145.154617,184.343781 145.154617,190.419846 145.154617,196.811386 
	C157.094864,200.247925 169.151642,202.311615 181.512527,199.636826 
	C193.530563,197.036224 200.179199,188.851883 201.033249,176.896820 
	C201.790939,166.290726 197.536133,158.399780 188.600235,153.098358 
	C182.745728,149.625061 176.477936,146.854828 170.549301,143.497620 
	C166.866074,141.411926 163.448166,138.792953 164.381653,133.695053 
	C165.207199,129.186752 168.765167,126.440392 174.639435,125.815651 
	C176.611511,125.605904 178.713593,125.359749 180.596176,125.805840 
	C186.025146,127.092285 191.372528,128.723053 196.889786,130.256897 
	C197.096985,125.961639 197.538712,121.332024 197.396927,116.720345 
	C197.359116,115.490303 195.646378,113.399841 194.513580,113.262375 
	C186.771439,112.322884 178.943542,110.990158 171.210800,111.328323 
	C159.299805,111.849190 148.835953,115.652573 145.003510,129.702240 
M114.853119,151.500061 
	C114.853119,143.569427 114.853119,135.638779 114.853119,127.086601 
	C123.035851,127.086601 130.591522,127.086601 138.012665,127.086601 
	C138.012665,121.390129 138.012665,116.339912 138.012665,111.310913 
	C115.889481,111.310913 94.171196,111.310913 72.391830,111.310913 
	C72.391830,116.695244 72.391830,121.762192 72.391830,127.317261 
	C80.285828,127.317261 87.869812,127.317261 96.084846,127.317261 
	C96.084846,152.142441 96.084846,176.479431 96.084846,200.672333 
	C102.645493,200.672333 108.557808,200.672333 114.853119,200.672333 
	C114.853119,184.396881 114.853119,168.448486 114.853119,151.500061 
z"/>
<path fill="#000" opacity="1.000000" stroke="none" 
	d="
M145.070267,129.299103 
	C148.835953,115.652573 159.299805,111.849190 171.210800,111.328323 
	C178.943542,110.990158 186.771439,112.322884 194.513580,113.262375 
	C195.646378,113.399841 197.359116,115.490303 197.396927,116.720345 
	C197.538712,121.332024 197.096985,125.961639 196.889786,130.256897 
	C191.372528,128.723053 186.025146,127.092285 180.596176,125.805840 
	C178.713593,125.359749 176.611511,125.605904 174.639435,125.815651 
	C168.765167,126.440392 165.207199,129.186752 164.381653,133.695053 
	C163.448166,138.792953 166.866074,141.411926 170.549301,143.497620 
	C176.477936,146.854828 182.745728,149.625061 188.600235,153.098358 
	C197.536133,158.399780 201.790939,166.290726 201.033249,176.896820 
	C200.179199,188.851883 193.530563,197.036224 181.512527,199.636826 
	C169.151642,202.311615 157.094864,200.247925 145.154617,196.811386 
	C145.154617,190.419846 145.154617,184.343781 145.154617,178.433456 
	C150.901215,180.493607 156.341385,183.048141 162.066330,184.291565 
	C166.128448,185.173859 170.802002,185.109528 174.800110,184.007431 
	C181.907181,182.048325 183.260574,174.054764 177.248489,169.780807 
	C172.267944,166.240173 166.575851,163.704117 161.216415,160.692001 
	C152.450104,155.765152 145.341797,149.497314 144.503738,138.639847 
	C144.276108,135.691086 144.815918,132.683060 145.070267,129.299103 
z"/>
<path fill="#000" opacity="1.000000" stroke="none" 
	d="
M114.853119,152.000076 
	C114.853119,168.448486 114.853119,184.396881 114.853119,200.672333 
	C108.557808,200.672333 102.645493,200.672333 96.084846,200.672333 
	C96.084846,176.479431 96.084846,152.142441 96.084846,127.317261 
	C87.869812,127.317261 80.285828,127.317261 72.391830,127.317261 
	C72.391830,121.762192 72.391830,116.695244 72.391830,111.310913 
	C94.171196,111.310913 115.889481,111.310913 138.012665,111.310913 
	C138.012665,116.339912 138.012665,121.390129 138.012665,127.086601 
	C130.591522,127.086601 123.035851,127.086601 114.853119,127.086601 
	C114.853119,135.638779 114.853119,143.569427 114.853119,152.000076 
z"/>
</svg>