<svg version="1.1" id="Layer_1" xmlns="http://www.w3.org/2000/svg" xmlns:xlink="http://www.w3.org/1999/xlink" x="0px" y="0px"
	 width="100%" viewBox="0 0 100 100" enable-background="new 0 0 100 100" xml:space="preserve">
<path fill="#000000" opacity="000000" stroke="none" 
	d="
M60.000000,101.000000 
	C40.000004,101.000000 20.500008,101.000000 1.000008,101.000000 
	C1.000005,67.666679 1.000005,34.333351 1.000003,1.000021 
	C34.333317,1.000014 67.666634,1.000014 100.999969,1.000007 
	C100.999977,34.333313 100.999977,67.666626 100.999985,100.999969 
	C87.500000,101.000000 74.000000,101.000000 60.000000,101.000000 
M88.529663,59.965698 
	C89.528389,58.302830 91.019081,56.746101 91.406311,54.951298 
	C91.938232,52.485916 92.592186,49.320251 91.527626,47.359127 
	C86.064117,37.294292 79.956406,27.581467 74.328758,17.601862 
	C72.828423,14.941287 71.193314,13.888956 68.137512,13.933814 
	C56.808823,14.100117 45.474876,14.096501 34.145958,13.938280 
	C30.956539,13.893737 29.150375,14.919461 27.549427,17.779491 
	C22.022657,27.652843 15.966803,37.232937 10.562560,47.169521 
	C9.477208,49.165119 9.429231,52.746189 10.505489,54.724358 
	C15.990082,64.805046 21.875399,74.677666 27.946989,84.419601 
	C29.002367,86.112968 31.596237,87.790520 33.523746,87.842751 
	C45.179585,88.158562 56.852634,88.159431 68.508354,87.841454 
	C70.431221,87.789001 73.007706,86.087723 74.067513,84.390144 
	C78.946663,76.574806 83.395416,68.490761 88.529663,59.965698 
z"/>
<path fill="#64FFDA" opacity="1.000000" stroke="none" 
	d="
M88.264099,60.234394 
	C83.395416,68.490761 78.946663,76.574806 74.067513,84.390144 
	C73.007706,86.087723 70.431221,87.789001 68.508354,87.841454 
	C56.852634,88.159431 45.179585,88.158562 33.523746,87.842751 
	C31.596237,87.790520 29.002367,86.112968 27.946989,84.419601 
	C21.875399,74.677666 15.990082,64.805046 10.505489,54.724358 
	C9.429231,52.746189 9.477208,49.165119 10.562560,47.169521 
	C15.966803,37.232937 22.022657,27.652843 27.549427,17.779491 
	C29.150375,14.919461 30.956539,13.893737 34.145958,13.938280 
	C45.474876,14.096501 56.808823,14.100117 68.137512,13.933814 
	C71.193314,13.888956 72.828423,14.941287 74.328758,17.601862 
	C79.956406,27.581467 86.064117,37.294292 91.527626,47.359127 
	C92.592186,49.320251 91.938232,52.485916 91.406311,54.951298 
	C91.019081,56.746101 89.528389,58.302830 88.264099,60.234394 
M40.583309,19.000244 
	C35.389915,18.320845 31.769201,19.280258 29.204216,24.979502 
	C25.580137,33.031986 20.269243,40.310474 16.137245,48.160805 
	C15.231819,49.881012 15.529747,53.007652 16.510580,54.815392 
	C21.039757,63.162937 25.858494,71.366608 30.934357,79.393623 
	C32.005459,81.087471 34.558140,82.769890 36.486816,82.839828 
	C46.123142,83.189247 55.785633,83.186035 65.422447,82.843430 
	C67.364311,82.774391 69.955040,81.153931 71.016258,79.472321 
	C76.186691,71.279221 81.135788,62.927006 85.685707,54.376991 
	C86.677231,52.513763 86.530792,49.171429 85.507568,47.260391 
	C81.013855,38.867699 76.153313,30.657204 71.066010,22.608036 
	C69.995178,20.913752 67.452660,19.255669 65.511681,19.161629 
	C57.545006,18.775637 49.548748,19.000280 40.583309,19.000244 
z"/>
<path fill="#000000" opacity="1.000000" stroke="none" 
	d="
M41.073341,19.000244 
	C49.548748,19.000280 57.545006,18.775637 65.511681,19.161629 
	C67.452660,19.255669 69.995178,20.913752 71.066010,22.608036 
	C76.153313,30.657204 81.013855,38.867699 85.507568,47.260391 
	C86.530792,49.171429 86.677231,52.513763 85.685707,54.376991 
	C81.135788,62.927006 76.186691,71.279221 71.016258,79.472321 
	C69.955040,81.153931 67.364311,82.774391 65.422447,82.843430 
	C55.785633,83.186035 46.123142,83.189247 36.486816,82.839828 
	C34.558140,82.769890 32.005459,81.087471 30.934357,79.393623 
	C25.858494,71.366608 21.039757,63.162937 16.510580,54.815392 
	C15.529747,53.007652 15.231819,49.881012 16.137245,48.160805 
	C20.269243,40.310474 25.580137,33.031986 29.204216,24.979502 
	C31.769201,19.280258 35.389915,18.320845 41.073341,19.000244 
M42.999958,60.435623 
	C42.999958,55.436543 42.999958,50.437458 42.999958,43.980476 
	C47.943729,51.410259 52.230907,57.303368 55.897942,63.559944 
	C58.294731,67.649269 61.241932,68.915977 65.789902,67.606369 
	C65.789902,56.239658 65.789902,44.823471 65.789902,33.220123 
	C63.515766,33.220123 61.453960,33.220123 58.928799,33.220123 
	C58.928799,40.780964 58.928799,48.138111 58.928799,57.041367 
	C54.103626,49.715466 49.927593,43.816586 46.242851,37.625317 
	C43.791367,33.506214 40.850521,31.843397 36.296921,33.492149 
	C36.296921,44.980759 36.296921,56.392151 36.296921,67.676643 
	C38.670528,67.676643 40.728390,67.676643 42.999958,67.676643 
	C42.999958,65.373978 42.999958,63.392784 42.999958,60.435623 
z"/>
<path fill="#64FFDA" opacity="1.000000" stroke="none" 
	d="
M42.999958,60.923607 
	C42.999958,63.392784 42.999958,65.373978 42.999958,67.676643 
	C40.728390,67.676643 38.670528,67.676643 36.296921,67.676643 
	C36.296921,56.392151 36.296921,44.980759 36.296921,33.492149 
	C40.850521,31.843397 43.791367,33.506214 46.242851,37.625317 
	C49.927593,43.816586 54.103626,49.715466 58.928799,57.041367 
	C58.928799,48.138111 58.928799,40.780964 58.928799,33.220123 
	C61.453960,33.220123 63.515766,33.220123 65.789902,33.220123 
	C65.789902,44.823471 65.789902,56.239658 65.789902,67.606369 
	C61.241932,68.915977 58.294731,67.649269 55.897942,63.559944 
	C52.230907,57.303368 47.943729,51.410259 42.999958,43.980476 
	C42.999958,50.437458 42.999958,55.436543 42.999958,60.923607 
z"/>
</svg>